<?xml version="1.0" encoding="UTF-8"?>
<svg width="100px" height="100px" viewBox="0 0 100 100" version="1.1" xmlns="http://www.w3.org/2000/svg" xmlns:xlink="http://www.w3.org/1999/xlink">
    <!-- Generator: Sketch 54.1 (76490) - https://sketchapp.com -->
    <title>falcon</title>
    <desc>Created with Sketch.</desc>
    <g id="falcon" stroke="none" stroke-width="1" fill="none" fill-rule="evenodd">
        <rect id="Rectangle" fill="#E84849" x="0" y="0" width="100" height="100"></rect>
        <g id="icons8-falcon" fill-rule="nonzero">
            <path d="M100,50 C100,77.6098347 77.6098347,100 50,100 C22.3901653,100 0,77.6098347 0,50 C0,22.3901653 22.3901653,0 50,0 C77.6098347,0 100,22.3901653 100,50" id="Path" fill="#E84849"></path>
            <path d="M66.6998234,49.3740023 C65.6792231,43.1083238 61.7569158,38 49.9899941,38 C39.0635668,38 34.5008829,43.2480046 33.3201883,49.6533637 C33.1000589,50.8905359 33,52.1476625 33,53.4247434 C33,54.3027366 33.0400235,55.2405929 33.1200706,56.1784493 C33.7804591,63.8209806 41.3849323,73 50.0100059,73 C58.5750441,73 66.2595644,63.6214367 66.8999411,55.9190422 C66.9799882,55.0610034 67,54.222919 67,53.4247434 C67,52.0478905 66.8999411,50.690992 66.6998234,49.3740023" id="Path" fill="#66463B"></path>
            <path d="M49.9800853,50.928749 L47.7098151,49 L45.3798009,50.988401 L43.0497866,49 L40.7197724,50.988401 L38.3897582,49 L36.2788051,50.7895609 C36,52.7779619 36,54.3090307 36,54.3090307 C36.1792319,61.8649544 42.3726885,73 50,73 L50,53.3545982 L50,50.928749 L49.9800853,50.928749 Z M49.3428165,53.3347142 L49.3428165,53.3347142 C49.4623044,53.3545982 49.5817923,53.3545982 49.7211949,53.3744822 C49.5817923,53.3744822 49.4623044,53.3545982 49.3428165,53.3347142 L49.3428165,53.3347142 Z" id="Shape" fill="#66463B"></path>
            <path d="M59.3798009,50.9900498 L57.0497866,49 L54.7197724,50.9900498 L52.3897582,49 L50.059744,50.9900498 L50,50.9303483 L50,53.358209 L50,73 C57.6273115,73 63.8207681,61.8557214 64,54.2935323 C64,54.2935323 64,52.6616915 63.6813656,50.5721393 L61.7496444,49 L59.3798009,50.9900498 Z" id="Path" fill="#66463B"></path>
            <path d="M40.5377907,51 L42.9186047,49.013245 L45.2994186,51 L47.6802326,49.013245 L50,50.9403974 L50,45.7748344 L50,27 C44.8313953,27 40.5784884,30.8741722 40.130814,35.8211921 L40.130814,35.8211921 L40.130814,35.9006623 C40.1104651,36.1589404 40.0901163,36.4172185 40.0901163,36.6953642 C40.0901163,36.7748344 40.0901163,36.8543046 40.1104651,36.9337748 C40.0494186,37.9072848 39.9069767,39.4370861 39.4796512,41.0463576 C39.1744186,42.1788079 38.7267442,43.3311258 38.0755814,44.384106 C37.6075581,45.1390728 37.2209302,46.013245 36.9156977,46.9072848 C36.4680233,48.2384106 36.1831395,49.6291391 36,50.8410596 L38.1569767,49.0529801 L40.5377907,51 Z" id="Path" fill="#A99D9F"></path>
            <path d="M62.0175182,44.3642384 C61.4043796,43.410596 60.9751825,42.3377483 60.6890511,41.3046358 C60.1781022,39.5364238 60.0145985,37.8278146 59.9532847,36.794702 C59.9532847,36.7549669 59.9532847,36.7152318 59.9532847,36.6754967 C59.9532847,36.4966887 59.9328467,36.3178808 59.9328467,36.1589404 C59.9328467,35.9602649 59.9328467,35.8211921 59.9328467,35.8211921 L59.9124088,35.8410596 C59.4832117,30.8940397 55.2116788,27 50,27 L50,45.7748344 L50,50.9403974 L50.0613139,51 L52.4525547,49.013245 L54.8437956,51 L57.2350365,49.013245 L59.6262774,51 L62.0175182,49.013245 L64,50.5827815 C63.8364964,49.4701987 63.5708029,48.218543 63.1824818,47.0264901 C62.9167883,46.0927152 62.5080292,45.1788079 62.0175182,44.3642384" id="Path" fill="#A99D9F"></path>
            <path d="M46.4460516,33.483731 C45.9652233,34.2646421 45.8188842,35.2212581 46.278807,35.9436009 L49.1637768,40.472885 C49.3937382,40.824295 49.6864163,41 50,41 L50,32 C48.9965322,32 46.7596353,32.9566161 46.4460516,33.483731" id="Path" fill="#3C3D3C"></path>
            <path d="M50.8141693,40.472885 L53.6950763,35.9436009 C54.1543513,35.2212581 54.0917229,34.4403471 53.5280672,33.483731 C53.2984297,33.0932755 50.8141693,32 50,32 L50,41 C50.2922659,41 50.5845318,40.824295 50.8141693,40.472885" id="Path" fill="#3C3D3C"></path>
            <path d="M44,71.6864407 C44,72.4067797 43.5483871,73 43,73 C42.4516129,73 42,72.4067797 42,71.6864407 L42,69.3135593 C42,68.5932203 42.4516129,68 43,68 C43.5483871,68 44,68.5932203 44,69.3135593 L44,71.6864407 Z" id="Path" fill="#F29D2B"></path>
            <path d="M46,71.6864407 C46,72.4067797 45.5483871,73 45,73 C44.4516129,73 44,72.4067797 44,71.6864407 L44,69.3135593 C44,68.5932203 44.4516129,68 45,68 C45.5483871,68 46,68.5932203 46,69.3135593 L46,71.6864407 Z" id="Path" fill="#F29D2B"></path>
            <path d="M49,71.6864407 C49,72.4067797 48.5483871,73 48,73 C47.4516129,73 47,72.4067797 47,71.6864407 L47,69.3135593 C47,68.5932203 47.4516129,68 48,68 C48.5483871,68 49,68.5932203 49,69.3135593 L49,71.6864407 Z" id="Path" fill="#F29D2B"></path>
            <path d="M53,71.6864407 C53,72.4067797 52.5483871,73 52,73 C51.4516129,73 51,72.4067797 51,71.6864407 L51,69.3135593 C51,68.5932203 51.4516129,68 52,68 C52.5483871,68 53,68.5932203 53,69.3135593 L53,71.6864407 Z" id="Path" fill="#F29D2B"></path>
            <path d="M56,71.6864407 C56,72.4067797 55.5483871,73 55,73 C54.4516129,73 54,72.4067797 54,71.6864407 L54,69.3135593 C54,68.5932203 54.4516129,68 55,68 C55.5483871,68 56,68.5932203 56,69.3135593 L56,71.6864407 Z" id="Path" fill="#F29D2B"></path>
            <path d="M58,71.6864407 C58,72.4067797 57.5483871,73 57,73 C56.4516129,73 56,72.4067797 56,71.6864407 L56,69.3135593 C56,68.5932203 56.4516129,68 57,68 C57.5483871,68 58,68.5932203 58,69.3135593 L58,71.6864407 Z" id="Path" fill="#F29D2B"></path>
            <path d="M43,33.0451318 C43,34.1192352 43.9010989,35 45,35 C46.0989011,35 47,34.1192352 47,33.0451318 C47,32.2502953 46.2527473,31.6273154 45,31.0902637 C43.989011,30.6391403 43,31.9710285 43,33.0451318" id="Path" fill="#F29D2B"></path>
            <path d="M44,33 C44,33.55 44.45,34 45,34 C45.55,34 46,33.55 46,33 C46,32.45 45.55,32 45,32 C44.45,32 44,32.45 44,33" id="Path" fill="#3C3D3C"></path>
            <path d="M57,33.0451318 C57,34.1192352 56.0989011,35 55,35 C53.9010989,35 53,34.1192352 53,33.0451318 C53,32.2502953 53.7472527,31.6273154 55,31.0902637 C56.010989,30.6391403 57,31.9710285 57,33.0451318" id="Path" fill="#F29D2B"></path>
            <path d="M54,33 C54,33.55 54.45,34 55,34 C55.55,34 56,33.55 56,33 C56,32.45 55.55,32 55,32 C54.45,32 54,32.45 54,33" id="Path" fill="#3C3D3C"></path>
        </g>
    </g>
</svg>