<?xml version="1.0" encoding="UTF-8"?>
<svg width="100px" height="100px" viewBox="0 0 100 100" version="1.1" xmlns="http://www.w3.org/2000/svg" xmlns:xlink="http://www.w3.org/1999/xlink">
    <!-- Generator: Sketch 54.1 (76490) - https://sketchapp.com -->
    <title>fox</title>
    <desc>Created with Sketch.</desc>
    <g id="fox" stroke="none" stroke-width="1" fill="none" fill-rule="evenodd">
        <rect id="Rectangle" fill="#49A0AE" x="0" y="0" width="100" height="100"></rect>
        <g id="icons8-fox" fill-rule="nonzero">
            <path d="M100,50 C100,77.6098347 77.6098347,100 50,100 C22.3901653,100 0,77.6098347 0,50 C0,22.3901653 22.3901653,0 50,0 C77.6098347,0 100,22.3901653 100,50" id="Path" fill="#49A0AE"></path>
            <path d="M43.4406943,69.2460335 C39.2082932,72.6792152 33.659595,70.3837739 30.3789778,66.7909095 C30.1157184,66.5114644 29.8322083,66.2519798 29.5284474,66.0124555 C28.1311475,65.9525744 26.632594,66.0922969 25.3972999,66.7909095 C25.3972999,66.7909095 27.6248795,68.4476192 28.4551591,70.2640118 C28.4551591,70.2640118 25.9643202,70.7630208 24,69.5454389 C24,69.5454389 24.2430087,72.4396909 26.3288332,74.954696 C26.9768563,75.1542996 27.6856316,75.3339428 28.4551591,75.4736653 C41.2941176,77.9687101 45,70.7829811 45,70.7829811 L43.4406943,69.2460335 Z" id="Path" fill="#AF5C2B"></path>
            <path d="M28.8860993,70.2525253 C28.0197322,68.4141414 25.771303,66.7373737 25.771303,66.7373737 C27.0295982,66.0505051 28.5766825,65.8888889 30,65.969697 C26.3076256,63.1212121 19.4591993,63 19.4591993,63 C19.4591993,63 16.2618918,71.8484848 26.7408092,75 C24.6161468,72.4545455 24.3686133,69.5252525 24.3686133,69.5252525 C26.3488812,70.7575758 28.8860993,70.2525253 28.8860993,70.2525253" id="Path" fill="#D4D2B1"></path>
            <path d="M72,57 C71.7291667,56.6538462 71.3958333,56.3076923 71,56 C71.1041667,56.1153846 71.2083333,56.2307692 71.2916667,56.3461538 C71.5625,56.5384615 71.7916667,56.7692308 72,57" id="Path" fill="#F7F3CE"></path>
            <path d="M72,57.1706827 C71.7058824,57.0502008 71.3823529,56.9297189 71,56.8293173 C71.6176471,57.0502008 72,57.1706827 72,57.1706827" id="Path" fill="#F7F3CE"></path>
            <path d="M31,56 C30.6041667,56.3076923 30.2708333,56.6538462 30,57 C30.2083333,56.7692308 30.4375,56.5384615 30.7083333,56.3461538 C30.7916667,56.2307692 30.875,56.1153846 31,56" id="Path" fill="#F7F3CE"></path>
            <path d="M30,57.1706827 C30,57.1706827 30.3823529,57.0502008 31,56.8293173 C30.6176471,56.9297189 30.2941176,57.0502008 30,57.1706827" id="Path" fill="#F7F3CE"></path>
            <path d="M63,61.9463087 C62.9192246,62.0671141 62.7576737,62.1879195 62.6768982,62.3087248 C62.7576737,62.1879195 62.7980614,62.0671141 62.8788368,61.9463087 C62.8788368,61.7651007 62.8788368,61.5838926 62.8788368,61.4026846 C62.8788368,54.557047 57.3053312,49 50.4394184,49 C43.5735057,49 38,54.557047 38,61.4026846 C38,61.6241611 38.0201939,61.8456376 38.0403877,62.0671141 C38.1211632,62.1879195 38.2019386,62.3087248 38.2827141,62.409396 C38.2019386,62.2885906 38.4038772,62.1677852 38.3231018,62.0671141 C38.5048465,65.3892617 39.7568659,68.3489933 42.5436187,70.4630872 L42.5436187,74.3691275 C41.1502423,75.295302 40.0193861,77.6107383 40.0193861,79 L50.1970921,79 C50.1970921,77.6107383 49.5105008,75.295302 48.1171244,74.3691275 L48.1171244,73.5838926 C49.5105008,73.704698 49.4499192,73.7852349 50.1970921,73.7852349 C50.9644588,73.7852349 52.2770598,73.704698 52.2770598,73.5838926 L52.2770598,74.3691275 C50.8836834,75.295302 50.6817447,77.6107383 50.6817447,79 L60.8594507,79 C60.8594507,77.6107383 60.6171244,75.295302 59.2439418,74.3691275 L59.2439418,70.4630872 C60.6171244,68.3288591 62.858643,65.3087248 63,61.9463087 M38.3029079,62.4697987 C38.3836834,62.5704698 38.4644588,62.6711409 38.5250404,62.7718121 C38.4644588,62.6711409 38.3836834,62.5704698 38.3029079,62.4697987 M62.5153473,62.3892617 C62.4547658,62.4697987 62.3941842,62.5704698 62.3336026,62.6510067 C62.3941842,62.5704698 62.4547658,62.4697987 62.5153473,62.3892617 M62.273021,62.7114094 C62.1922456,62.8120805 62.131664,62.8926174 62.0508885,62.9932886 C62.131664,62.8926174 62.2124394,62.7919463 62.273021,62.7114094" id="Shape" fill="#E98130"></path>
            <path d="M54.8059299,64.7916667 C53.9770889,65.2291667 53.3301887,65.7083333 52.4407008,66.25 C51.8544474,66.6041667 50.9043127,66.9583333 50.9043127,67.3541667 L50.9043127,62 L50.9043127,67.3333333 C49.509434,66.9375 49.4892183,66.5833333 48.9231806,66.2291667 C48.0336927,65.6875 47.0431267,65.2083333 46.2142857,64.7708333 C46.2142857,64.7708333 46.1536388,64.7708333 46.1536388,64.7708333 C45.041779,64.5 43.9703504,64.2083333 43,63.9166667 C43.1415094,64.8541667 43.2425876,65.75 43.384097,66.6041667 C44.0916442,70.9791667 45.2237197,74 50.4595687,74 C55.8369272,74 56.9083558,70.9375 57.615903,66.5208333 C57.7371968,65.6875 57.8584906,64.8125 58,63.9166667 C56.9892183,64.2083333 55.9380054,64.5208333 54.8059299,64.7916667" id="Path" fill="#F7F3CE"></path>
            <path d="M57,38.2506203 C60.2625188,25.4665012 70.9939486,21 70.9939486,21 C70.9939486,21 78.6680495,40.3945409 63.9969743,45 L57,38.2506203 Z" id="Path" fill="#3C3D3C"></path>
            <path d="M59,39.512766 C63.1057487,27.162766 69.7071486,25 69.7071486,25 C69.7071486,25 75.4028686,36.8042553 62.8843603,44 L59,39.512766 Z" id="Path" fill="#AF5C2B"></path>
            <path d="M45,38.2506203 C41.7374812,25.4665012 31.0060514,21 31.0060514,21 C31.0060514,21 23.3319505,40.3945409 38.0030257,45 L45,38.2506203 Z" id="Path" fill="#3C3D3C"></path>
            <path d="M43,39.512766 C38.8942513,27.162766 32.2928514,25 32.2928514,25 C32.2928514,25 26.5971314,36.8042553 39.1156397,44 L43,39.512766 Z" id="Path" fill="#AF5C2B"></path>
            <path d="M55.0218103,65 C54.6292257,63.9446858 53.9029444,63.1004345 53,62.5727774 C53.7459106,61.2641878 56.2584515,57.781651 61.8920393,55.776554 C66.0534351,54.2780079 69.6259542,55.2277907 71,56.2831049 C71,56.2619986 66.7993457,62.024014 55.0218103,65" id="Path" fill="#F7F3CE"></path>
            <path d="M52.8188235,62.6827586 C52.12,62.2896552 51.2517647,62.2689655 50.3835294,62.2689655 L50.9341176,62.2689655 L50.9341176,62 C49.4729412,62 49.0282353,62.1655172 48.3082353,62.5586207 C47.3341176,63.0965517 46.4235294,63.8827586 46,64.9172414 C46.8682353,65.3517241 47.9694118,65.8068966 48.9011765,66.3448276 C49.4941176,66.6965517 49.4729412,67.2344828 50.9341176,67.6482759 L50.9341176,68 L50.3835294,68 C51.0188235,66.5724138 51.6541176,66.9655172 52.2682353,66.6137931 C53.2,66.0758621 54.1317647,65.5586207 55,65.1241379 C54.5552941,64.0689655 53.7929412,63.2206897 52.8188235,62.6827586" id="Path" fill="#3C3D3C"></path>
            <path d="M66.7968829,51.3868195 C66.7968829,51.1862464 66.7566616,50.9856734 66.7566616,50.7851003 C66.7566616,42.0802292 59.6375063,35 50.869281,35 L50.869281,35 L50.869281,35 L50.869281,35 L50.869281,35 C42.3021619,35.0200573 35.1226747,42.0802292 35.1226747,50.7851003 C35.1226747,50.9856734 35.1830065,51.1862464 35.1830065,51.3868195 C34.4590246,54.3553009 32.1463047,56.0200573 31,56.6819484 C32.8099548,55.8997135 35.8466566,55.5587393 39.6475616,56.5415473 C44.0718954,57.6848138 47.9934641,61.3954155 48.7576672,63 C49.4213172,62.6389685 50.1855204,62.3982808 51.0100553,62.3982808 C51.8345902,62.3982808 52.5786828,62.6389685 53.2423328,63 C54.0065359,61.3753582 57.907994,57.6848138 62.3524384,56.5415473 C66.173454,55.5587393 69.1900452,55.8997135 71,56.6819484 C69.8335847,56.0200573 67.5208648,54.3553009 66.7968829,51.3868195" id="Path" fill="#E98130"></path>
            <path d="M71,56.8293173 C71.6176471,57.0702811 72,57.1706827 72,57.1706827 C71.7058824,57.0502008 71.3529412,56.9297189 71,56.8293173" id="Path" fill="#AF5C2B"></path>
            <path d="M31,56.8293173 C30.6176471,56.9297189 30.2941176,57.0502008 30,57.1706827 C30,57.1706827 30.4117647,57.0502008 31,56.8293173" id="Path" fill="#AF5C2B"></path>
            <path d="M45.9781897,65 C46.3707743,63.9446858 47.0970556,63.1004345 48,62.5727774 C47.2540894,61.2641878 44.7415485,57.781651 39.1079607,55.776554 C34.9465649,54.2780079 31.3740458,55.2277907 30,56.2831049 C30,56.2619986 34.2006543,62.024014 45.9781897,65" id="Path" fill="#D4D2B1"></path>
            <path d="M50.9955377,34.9955377 L50.9955377,34.9955377 C50.9955377,35.015618 51.015618,34.9955377 50.9955377,34.9955377 L50.9955377,34.9955377 Z" id="Path" fill="#E96331"></path>
            <path d="M49,62.9924699 L49,62.9924699 C49,63.0125502 49,63.0125502 49,62.9924699 C49,63.0125502 49,63.0125502 49,62.9924699" id="Path" fill="#0B191C"></path>
            <path d="M51.0075301,34.9955377 L51.0075301,34.9955377 C50.9874498,34.9955377 50.9874498,35.015618 51.0075301,34.9955377 L51.0075301,34.9955377 Z" id="Path" fill="#A94825"></path>
            <path d="M49,62.9747899 C49,63.0084034 49,63.0084034 49,62.9747899 C49.5945946,62.3697479 50.2792793,62 51,62 L51,62 C50.2792793,62 49.5945946,62.3697479 49,62.9747899" id="Path" fill="#A94825"></path>
            <path d="M50.9955377,62 L50.9955377,62 C50.9955377,62 51.015618,62 50.9955377,62 C51.015618,62 50.9955377,62 50.9955377,62" id="Path" fill="#A94825"></path>
            <path d="M51,79 C51,76.2420635 48.7579365,74 46,74 C43.2420635,74 41,76.2420635 41,79 L51,79 Z" id="Path" fill="#3C3D3C"></path>
            <path d="M61,79 C61,76.2420635 58.7579365,74 56,74 C53.2420635,74 51,76.2420635 51,79 L61,79 Z" id="Path" fill="#3C3D3C"></path>
            <path d="M38,48.2804141 C38,48.2804141 45.1461556,46.1597825 44.9977192,53.5819932 C44.9977192,53.6036323 38,56.178685 38,48.2804141" id="Path" fill="#F29D2B"></path>
            <path d="M56.0022808,53.5913808 C56.0022808,53.5913808 63,56.1879925 63,48.2899653 C63,48.2683268 55.8538444,46.1693991 56.0022808,53.5913808" id="Path" fill="#F29D2B"></path>
            <path d="M44,50 C44,50.557377 43.557377,51 43,51 C42.442623,51 42,50.557377 42,50 C42,49.442623 42.442623,49 43,49 C43.557377,49 44,49.442623 44,50" id="Path" fill="#FFFFFF"></path>
            <path d="M62,50 C62,50.557377 61.557377,51 61,51 C60.442623,51 60,50.557377 60,50 C60,49.442623 60.442623,49 61,49 C61.557377,49 62,49.442623 62,50" id="Path" fill="#FFFFFF"></path>
        </g>
    </g>
</svg>