<?xml version="1.0" encoding="UTF-8"?>
<svg width="100px" height="100px" viewBox="0 0 100 100" version="1.1" xmlns="http://www.w3.org/2000/svg" xmlns:xlink="http://www.w3.org/1999/xlink">
    <!-- Generator: Sketch 54.1 (76490) - https://sketchapp.com -->
    <title>giraffe</title>
    <desc>Created with Sketch.</desc>
    <g id="giraffe" stroke="none" stroke-width="1" fill="none" fill-rule="evenodd">
        <rect id="Rectangle" fill="#65A844" x="0" y="0" width="100" height="100"></rect>
        <g id="icons8-giraffe" fill-rule="nonzero">
            <path d="M100,50 C100,77.6098347 77.6098347,100 50,100 C22.3901653,100 0,77.6098347 0,50 C0,22.3901653 22.3901653,0 50,0 C77.6098347,0 100,22.3901653 100,50" id="Path" fill="#65A844"></path>
            <path d="M44.7812499,77 C44.102246,77 43.5430663,77.5423729 43.5430663,78.2009685 C43.5430663,80.622276 41.5060546,82.598063 39.0097167,82.598063 C36.6931152,82.598063 34.755957,80.8934625 34.4963379,78.7046005 C33.2581543,79.2469734 32.4593262,78.9564165 32,78.6464891 C32.2396484,82.1912833 35.2751953,85 38.989746,85 C42.8640624,85 45.9994628,81.9394673 45.9994628,78.2009685 C46.0194335,77.5423729 45.4802245,77 44.7812499,77" id="Path" fill="#F9CB4B"></path>
            <path d="M34.6913336,77.6913129 C34.6699738,77.5112009 34.648614,77.3511013 34.648614,77.1709892 C34.648614,76.6506655 34.7340532,76.1303418 34.9262913,75.6500429 C35.161249,75.0096445 34.8194923,74.2891963 34.1146192,74.0690593 C33.4311059,73.8489224 32.6621535,74.1691216 32.4271958,74.8295324 C32.1495185,75.5900056 32,76.3704912 32,77.1910016 C32,77.3511013 32.0213598,77.5112009 32.0213598,77.651288 C32.512635,77.9314623 33.3883864,78.2516615 34.6913336,77.6913129" id="Path" fill="#F9CB4B"></path>
            <path d="M56.8880079,81.1331058 L56.8880079,77.8771331 C58.8107037,76.0955631 59.8810704,73.5767918 60,70.7713311 C59.9405352,70.8737201 59.8414272,70.9761092 59.7819623,71.0580205 C59.8414272,70.9556314 59.900892,70.8532423 59.9603568,70.7713311 C59.9603568,70.6279863 59.9801784,70.4641638 59.9801784,70.3208191 C59.9801784,64.6279863 55.5004955,60 49.9900892,60 C46.0654113,60 42.6759167,62.334471 41.0307235,65.7337884 C40.9712587,65.7133106 40.8919722,65.6928328 40.8325074,65.6723549 C40.8919722,65.6928328 40.9712587,65.7133106 41.0307235,65.7337884 C41.0109019,65.7952218 40.9712587,65.8566553 40.9514371,65.8976109 L40.8325074,65.8566553 C40.8721506,65.8771331 40.9117939,65.8771331 40.9514371,65.8976109 C40.3369673,67.2286689 40,68.7235495 40,70.3003413 C40,70.4846416 40.1585728,70.668942 40.1585728,70.8532423 C40.2973241,73.6177474 41.7244797,76.0750853 43.4489594,77.8566553 L43.4489594,81.112628 C42.4975223,81.890785 41.60555,83.0580205 41.60555,84 L49.7720515,84 C49.7720515,83.0784983 48.8206145,81.890785 48.0673935,81.112628 L48.0673935,80.4573379 C48.6223984,80.6006826 49.2566898,80.662116 49.9900892,80.662116 C50.5649158,80.662116 51.0802775,80.6211604 51.5361744,80.5392491 L51.5361744,81.112628 C50.7631318,81.890785 50.2081269,83.0580205 50.2081269,84 L58.3746283,84 C58.3548067,83.0784983 57.839445,81.9112628 56.8880079,81.1331058" id="Path" fill="#F9CB4B"></path>
            <path d="M49.9924699,49 L49.9924699,49 C50.0125502,49 50.0125502,49 49.9924699,49 L49.9924699,49 Z" id="Path" fill="#F9CB4B"></path>
            <path d="M50.0075301,49 L50.0075301,49 C49.9874498,49 49.9874498,49 50.0075301,49 L50.0075301,49 Z" id="Path" fill="#F9CB4B"></path>
            <path d="M62.5991484,22.5178296 C60.2729389,21.1636382 57.6837666,22.6572317 55.7014316,23.4339003 C54.4675292,23.9118502 53.8606919,23.9118502 53.5977291,23.8321919 C53.1122593,23.1550962 52.5863337,22.5974879 52.0401802,22.1991963 C52.0401802,22.1991963 52.0199522,22.1792818 52.0199522,22.1792818 C52.3638267,21.5420152 52.7683849,20.8450049 53.1931709,20.1280801 C53.7393245,19.231924 54.1641105,18.4950845 54.1438826,18.47517 C54.1236547,18.4552554 54.6293524,18.5548283 55.175506,18.2959387 C55.4991525,18.1366221 55.7823432,17.8976472 55.9441665,17.5590993 C56.4094084,16.7027724 56.065534,15.6672142 55.2159618,15.2091789 C54.3461617,14.7511436 53.2740826,15.0896914 52.8290686,15.9261038 C52.6470174,16.2646516 52.5863337,16.6231141 52.6470174,16.9815765 C52.727929,17.5790139 53.0920314,17.9374763 53.0718035,17.9175617 C53.0515756,17.8976472 52.6672453,18.6544012 52.1817755,19.5903864 C51.8985848,20.1479946 51.5547103,20.8051758 51.1703801,21.5021861 C50.745594,21.2632111 50.3208079,21.123809 49.855566,21.123809 C49.2891846,21.123809 48.7430311,21.3428694 48.2171054,21.7212464 C47.7923194,20.9246632 47.4079891,20.2077384 47.0843426,19.5903864 C46.5988727,18.6544012 46.2347704,17.8976472 46.1943146,17.9175617 C46.1740867,17.9374763 46.538189,17.5790139 46.6191007,16.9815765 C46.6595565,16.6430286 46.6191007,16.2646516 46.4370495,15.9261038 C45.9718076,15.0697768 44.8997284,14.7511436 44.0501563,15.2091789 C43.1803562,15.6472997 42.8567097,16.7027724 43.3219516,17.5590993 C43.5040027,17.8976472 43.7669656,18.1565367 44.0906121,18.2959387 C44.6367656,18.5548283 45.1424633,18.4552554 45.1222354,18.47517 C45.1020075,18.4950845 45.5267936,19.2120094 46.0729471,20.1280801 C46.5786448,20.9644924 47.0034309,21.741161 47.4079891,22.4780005 C47.3675333,22.5178296 47.3270775,22.5775734 47.2866216,22.6174025 C46.9225193,22.9559504 46.5584169,23.354242 46.2347704,23.8321919 C45.9515797,23.8919356 45.3649703,23.9118502 44.1310679,23.4139857 C42.1689608,22.6572317 39.5595606,21.1437236 37.2333511,22.5178296 C35.2105602,23.7127044 32.9854903,24.6486896 32.0954623,26.3812581 C31.8729553,26.7994642 32.0550065,27.4765599 32.4797926,27.7354495 C32.8641228,27.9744244 33.3900485,28.1934848 34.0980253,28.2930577 C35.6151184,28.4922035 36.586058,29.5675908 38.1031512,29.7667366 C39.6202443,29.9658824 42.1891887,29.5875054 42.9376213,28.9502388 C43.4230911,28.5320327 43.9692446,27.755364 44.5760819,27.2574996 C43.8276493,29.4481033 43.4028632,32.116657 43.4028632,34.9843564 C43.4028632,35.1436731 43.4028632,35.3029897 43.4028632,35.4822209 C43.5040027,35.382648 43.6051423,35.2830751 43.7062818,35.2233314 C44.8390447,34.5860648 46.6797844,33.8492254 49.2487288,33.8492254 C49.2891846,33.8492254 49.3296404,33.8492254 49.3700962,33.8492254 C52.2829151,33.86914 54.6900362,34.9644419 56.1059898,35.7809396 C56.2071293,35.8406834 56.3082689,35.9203417 56.3891805,36 C56.4094084,35.6614521 56.4094084,35.3229043 56.4094084,34.9843564 C56.4094084,32.0967424 55.9846223,29.4281887 55.2361897,27.2574996 C55.843027,27.7752786 56.3891805,28.5519472 56.8746503,28.9502388 C57.6230829,29.5675908 60.1920273,29.9658824 61.7091204,29.7667366 C63.2262136,29.5675908 64.1971532,28.4922035 65.7142463,28.2930577 C67.2313395,28.0939119 68,27.1977558 68,27.1977558 C67.4943023,24.9075792 64.9253579,23.872021 62.5991484,22.5178296" id="Path" fill="#F9CB4B"></path>
            <path d="M52,30 C51.4516129,30 51,29.5483871 51,29 C51,28.4516129 51.4516129,28 52,28 C52.5483871,28 53,28.4516129 53,29 C53,29.5483871 52.5483871,30 52,30" id="Path" fill="#FFFFFF"></path>
            <path d="M48,30 C47.4516129,30 47,29.5483871 47,29 C47,28.4516129 47.4516129,28 48,28 C48.5483871,28 49,28.4516129 49,29 C49,29.5483871 48.5483871,30 48,30" id="Path" fill="#FFFFFF"></path>
            <path d="M52.1482276,43.0210324 C50.5915408,43.3191314 49.159389,43.1800185 48.2876444,43.0210324 C47.8102604,42.9216661 47.4574114,43.1998918 47.4781672,43.6768501 C47.4989231,44.869246 47.4574114,46.9956853 47.3951439,49.4003503 C47.3951439,49.4202236 47.3951439,49.4599701 47.4158998,49.4798434 C47.4158998,49.5195899 47.4158998,49.9369285 47.3951439,50.4138868 C47.3121206,52.2621004 47.2083415,55.0046109 47.1045624,57.3297828 C47.1045624,57.3496561 47.0422949,59.8139409 47.0007833,61.1454496 C46.9800275,61.622408 47.3743881,62 47.8725279,62 L52.0859601,62 C52.5840999,62 52.9784606,61.9006337 52.9784606,61.7813941 L52.9784606,61.5627882 C52.9577047,59.6748281 52.9784606,48.6849128 52.9784606,44.869246 C52.9784606,44.3922877 52.9784606,43.9948224 52.9992164,43.9550758 C52.9992164,43.9352026 52.9992164,43.9352026 52.9992164,43.9153293 C52.9992164,43.8358363 52.9992164,43.7563432 52.9992164,43.6768501 C53.0199722,43.1800185 52.6256116,42.9216661 52.1482276,43.0210324" id="Path" fill="#F9CB4B"></path>
            <path d="M48.6457031,56.9282513 C48.3231287,57.1763186 47.9844256,56.7374303 48.0005543,56.2794598 C48.0489404,54.6765632 48.1134553,52.9782561 48.1618415,51.6043448 C48.1779702,51.1463743 48.5005446,50.8601428 48.8392478,51.0700459 C49.5972977,51.5280163 50.274704,52.4248752 49.8876147,54.256757 C49.5650403,55.7260789 49.1295648,56.5847735 48.6457031,56.9282513" id="Path" fill="#3A2F2A"></path>
            <path d="M49.9924699,49 L49.9924699,49 C50.0125502,49 50.0125502,49 49.9924699,49 L49.9924699,49 Z" id="Path" fill="#BA6629"></path>
            <path d="M50.0075301,49 L50.0075301,49 C49.9874498,49 49.9874498,49 50.0075301,49 L50.0075301,49 Z" id="Path" fill="#BA6629"></path>
            <path d="M40.8067888,71.9154428 C41.5928908,71.4609994 42.2962452,70.3347702 42.8134175,68.4182046 C43.2478423,66.7782567 42.8754782,65.7113027 42.1928107,65 C41.7583859,65.533477 41.3860219,66.0867124 41.0757185,66.6794647 C41.0136578,66.6597063 40.9309102,66.6399479 40.8688495,66.6201895 C40.9309102,66.6399479 41.0136578,66.6597063 41.0757185,66.6794647 C41.0550316,66.7387399 41.0136578,66.7980151 40.9929709,66.8375319 L40.8688495,66.7980151 C40.9102233,66.8177735 40.9515971,66.8177735 40.9929709,66.8375319 C40.3516772,68.1218285 40,69.5641922 40,71.0855897 C40,71.2634153 40.1654951,71.441241 40.1654951,71.6190667 C40.1654951,71.6981003 40.186182,71.7771339 40.186182,71.8561676 C40.3723641,72.0142348 40.5999199,72.0537516 40.8067888,71.9154428" id="Path" fill="#3A2F2A"></path>
            <path d="M52,48.508154 C52,48.9407793 51.5135027,49.1570919 51.0782156,48.8686751 C50.3612723,48.3999977 49.874775,47.6789555 50.0284057,46.5793662 C50.1308262,45.8763501 50.5405081,45.4076727 51.0526105,45.1192559 C51.5135027,44.8488651 52,45.0651777 52,45.497803 C52,46.3450275 52,47.3725126 52,48.508154" id="Path" fill="#3A2F2A"></path>
            <path d="M43.6457031,74.9282513 C43.3231287,75.1763186 42.9844256,74.7374303 43.0005543,74.2794598 C43.0489404,72.6765632 43.1134553,70.9782561 43.1618415,69.6043448 C43.1779702,69.1463743 43.5005446,68.8601428 43.8392478,69.0700459 C44.5972977,69.5089342 45.274704,70.4248752 44.8876147,72.256757 C44.581169,73.7260789 44.1295648,74.5847735 43.6457031,74.9282513" id="Path" fill="#3A2F2A"></path>
            <path d="M47,66.5077354 C47,66.9407289 46.5135027,67.1572256 46.0782156,66.8685633 C45.3612723,66.3994871 44.874775,65.6778313 45.0284057,64.5773063 C45.1308262,63.8736919 45.5405081,63.4046157 46.0526105,63.1159534 C46.5135027,62.8453325 47,63.0798706 47,63.4948226 C47,64.3247268 47,65.3711276 47,66.5077354" id="Path" fill="#3A2F2A"></path>
            <path d="M53.3382765,64.1020722 C53.7586122,63.8147667 54.3190598,64.1786869 54.3657638,64.6383757 C54.5759316,66.2472863 54.8094515,67.9328116 54.9962673,69.3118779 C55.0429713,69.7715666 54.6459876,70.1163332 54.1088919,69.9631036 C52.9412927,69.6566444 51.7970455,68.8713428 52.0305653,66.9942805 C52.2407332,65.4811384 52.7077729,64.5426072 53.3382765,64.1020722" id="Path" fill="#3A2F2A"></path>
            <path d="M52.0126739,72.5443613 C51.9264593,72.1083431 52.2928713,71.8539991 52.7239442,72.0901756 C53.3921073,72.4716916 53.9309485,73.1620538 53.9956094,74.2702669 C54.0387167,74.9787966 53.7585193,75.4874845 53.4136609,75.8326656 C53.0688026,76.1596793 52.6377296,75.9780051 52.5515151,75.5419868 C52.4006395,74.7244526 52.2066567,73.6707418 52.0126739,72.5443613" id="Path" fill="#3A2F2A"></path>
            <path d="M49.9924699,49 L49.9924699,49 C50.0125502,49 50.0125502,49 49.9924699,49 L49.9924699,49 Z" id="Path" fill="#BA6629"></path>
            <path d="M50.0075301,49 L50.0075301,49 C49.9874498,49 49.9874498,49 50.0075301,49 L50.0075301,49 Z" id="Path" fill="#BA6629"></path>
            <path d="M59.7991101,71.989899 C59.8538982,71.8888889 59.9086864,71.7878788 59.9634746,71.7070707 C59.9634746,71.5656566 59.9817373,71.4040404 59.9817373,71.2626263 C59.9817373,68.8989899 59.2512285,66.7373737 58.0458889,65 C57.5893209,66.0505051 57.2423293,67.2828283 57.0962275,68.7777778 C56.7492358,72.2929293 57.3701683,74.979798 58.4841942,77 C59.415593,75.4848485 59.9269491,73.6666667 60,71.7070707 C59.9452118,71.7878788 59.872161,71.8888889 59.7991101,71.989899" id="Path" fill="#3A2F2A"></path>
            <path d="M56,26.2025778 C56,26.2025778 59.5835351,23.6978803 62.7215496,25.9179531 L64,26.4872025 C64,26.4872025 59.1961259,30.073474 56,26.2025778" id="Path" fill="#A07349"></path>
            <path d="M37,26.6920254 C37,26.6920254 40.2311436,23.8268596 43.6569343,25.5533057 L45,25.9390011 C45,25.9573675 40.7177616,30.0163525 37,26.6920254" id="Path" fill="#A07349"></path>
            <path d="M48.4996309,30 C48.2185885,30 48,29.78125 48,29.5 C48,29.21875 48.2185885,29 48.4996309,29 C48.7806733,29 48.9992618,29.234375 48.9992618,29.5 C49.0148753,29.765625 48.7806733,30 48.4996309,30" id="Path" fill="#010101"></path>
            <path d="M52.4923077,30 C52.2153846,30 52,29.78125 52,29.5 C52,29.21875 52.2307692,29 52.4923077,29 C52.7692308,29 53,29.234375 53,29.5 C52.9846154,29.765625 52.7692308,30 52.4923077,30" id="Path" fill="#010101"></path>
            <path d="M56.2784521,36.0464135 C54.8426813,35.1603376 52.3813599,34.021097 49.4482852,34 C49.4072632,34 49.3662411,34 49.3252191,34 C46.7203206,34 44.8538185,34.7805907 43.7052019,35.4556962 C43.2539596,35.7299578 42.9462944,36.4050633 43.0078275,36.9535865 C43.6026468,42.5021097 46.5152105,44 50.0431045,44 C53.4274215,44 56.2579411,42.6075949 56.9963375,37.5443038 C57.0373596,36.9746835 56.7296944,36.2995781 56.2784521,36.0464135" id="Path" fill="#DF7E28"></path>
            <path d="M49.6068564,39.9803922 C49.5540862,40 49.5277012,40 49.4749311,40 C48.9208448,40 48.5250689,39.2745098 48.2612184,38.6666667 C47.9973678,37.9803922 47.7862873,37.1568627 48.3931436,37.0196078 C48.4459138,37 48.4986839,37 48.5250689,37 C49.0791552,37 49.4749311,37.7254902 49.7387816,38.3333333 C50.0026322,39 50.2137127,39.8431373 49.6068564,39.9803922" id="Path" fill="#3A2F2A"></path>
            <path d="M51.8841612,38.6558442 C51.7615084,39.2597403 51.5707152,40 51.2845253,40 C51.2572691,40 51.243641,40 51.2163848,39.9805195 C50.9029387,39.8636364 50.9847073,39.025974 51.1209882,38.3441558 C51.243641,37.7207792 51.4344342,37 51.7206241,37 C51.7478803,37 51.7615084,37 51.7887646,37.0194805 C52.1022107,37.1558442 52.006814,37.9935065 51.8841612,38.6558442" id="Path" fill="#3A2F2A"></path>
        </g>
    </g>
</svg>