<?xml version="1.0" encoding="UTF-8"?>
<svg width="100px" height="100px" viewBox="0 0 100 100" version="1.1" xmlns="http://www.w3.org/2000/svg" xmlns:xlink="http://www.w3.org/1999/xlink">
    <!-- Generator: Sketch 54.1 (76490) - https://sketchapp.com -->
    <title>gorilla</title>
    <desc>Created with Sketch.</desc>
    <g id="gorilla" stroke="none" stroke-width="1" fill="none" fill-rule="evenodd">
        <rect id="Rectangle" fill="#EDC92C" x="0" y="0" width="100" height="100"></rect>
        <g id="icons8-gorilla" fill-rule="nonzero">
            <path d="M100,50 C100,77.6098347 77.6098347,100 50,100 C22.3901653,100 0,77.6098347 0,50 C0,22.3901653 22.3901653,0 50,0 C77.6098347,0 100,22.3901653 100,50" id="Path" fill="#EDC92C"></path>
            <path d="M37.6510172,55 C37.2441315,56.2562704 37,57.610687 37,59.0043621 C37,71.5081788 42.8184664,73 50,73 L50,61.1046892 C44.771518,61.1243184 40.2143975,58.6706652 37.6510172,55" id="Path" fill="#71706F"></path>
            <path d="M50,61.1046892 L50,73 C57.1815336,73 63,71.5081788 63,59.0043621 C63,57.610687 62.7762128,56.2562704 62.3489828,55 C59.7856025,58.651036 55.228482,61.1046892 50,61.1046892" id="Path" fill="#71706F"></path>
            <path d="M50,46 C44.3855025,46 39.6408567,49.7268293 38,54.8585366 C40.490939,58.5073171 44.9390445,62 50,62 C56.306425,62 59.509061,58.4878049 62,54.8585366 C60.3591433,49.7268293 55.6144975,46 50,46" id="Path" fill="#71706F"></path>
            <path d="M48,44 C48,46.2040816 46.2040816,48 44,48 C41.7959184,48 40,46.2040816 40,44 C40,41.7959184 41.7959184,40 44,40 C46.2040816,40 48,41.7959184 48,44" id="Path" fill="#F6C899"></path>
            <path d="M35,45.0966495 C35,52.2274485 36.7803547,58 50,58 L50,27 C42.6944065,27 35,37.9658505 35,45.0966495" id="Path" fill="#71706F"></path>
            <path d="M65,45.0966495 C65,37.9658505 57.3055935,27 50,27 L50,58 C63.2196453,58 65,52.2274485 65,45.0966495" id="Path" fill="#71706F"></path>
            <path d="M57.283085,39 C55.8720421,39 52.4653812,40.7755102 50.2681858,40.7755102 C48.1919369,40.7755102 44.9868536,39 43.6564417,39 C40.4312007,39 39,39.877551 39,43.1428571 C39,46.4081633 41.6205083,49.0408163 44.8457493,49.0408163 L44.8457493,52.0816327 C44.8457493,52.5714286 44.9062226,53.0408163 45.0271691,53.5102041 C45.6520596,56.0816327 47.9500438,58 50.6914987,58 C53.4329535,58 55.71078,56.0816327 56.3558282,53.5102041 C56.4767748,53.0612245 56.537248,52.5714286 56.537248,52.0816327 L56.537248,49.0204082 C59.5810692,48.8163265 62,46.2653061 62,43.1428571 C61.9395267,39.8571429 60.4881683,39 57.283085,39" id="Path" fill="#9B9A9A"></path>
            <path d="M50,49 C50,49.547619 49.547619,50 49,50 C48.452381,50 48,49.547619 48,49 C48,48.452381 48.452381,48 49,48 C49.547619,48 50,48.452381 50,49" id="Path" fill="#411713"></path>
            <path d="M53,49 C53,49.547619 52.547619,50 52,50 C51.452381,50 51,49.547619 51,49 C51,48.452381 51.452381,48 52,48 C52.547619,48 53,48.452381 53,49" id="Path" fill="#411713"></path>
            <path d="M46,44 C46,45.0961538 45.0961538,46 44,46 C42.9038462,46 42,45.0961538 42,44 C42,42.9038462 42.8846154,42 44,42 C45.0961538,42 46,42.9038462 46,44" id="Path" fill="#733F2B"></path>
            <path d="M58,44 C58,45.0961538 57.1153846,46 56,46 C54.9038462,46 54,45.0961538 54,44 C54,42.9038462 54.9038462,42 56,42 C57.0961538,42 58,42.9038462 58,44" id="Path" fill="#733F2B"></path>
            <path d="M46,43.5 C46,43.7714286 45.7714286,44 45.5,44 C45.2285714,44 45,43.7714286 45,43.5 C45,43.2285714 45.2285714,43 45.5,43 C45.7714286,43 46,43.2285714 46,43.5" id="Path" fill="#FFFFFF"></path>
            <path d="M57,43.5 C57,43.7714286 56.7714286,44 56.5,44 C56.2285714,44 56,43.7714286 56,43.5 C56,43.2285714 56.2142857,43 56.5,43 C56.7714286,43.0142857 57,43.2285714 57,43.5" id="Path" fill="#FFFFFF"></path>
            <path d="M50.4979836,56 C48.0530879,56 47.0751296,54.4347204 47.0343813,54.3886828 C46.973259,54.2735887 46.9936331,54.112457 47.0955037,54.0434006 C47.1973744,53.9743441 47.3399933,53.9973629 47.4011157,54.112457 C47.441864,54.1815135 48.2975775,55.5166048 50.4979836,55.5166048 C52.5150225,55.5166048 53.5948515,54.112457 53.6152256,54.0894382 C53.6967221,53.9743441 53.8393411,53.9743441 53.9208376,54.0664194 C54.0227082,54.1584946 54.0227082,54.3196264 53.9412117,54.4117016 C53.9004634,54.4577393 52.7187639,56 50.4979836,56" id="Path" fill="#411713"></path>
            <path d="M64,71.582563 C63.4503536,72.9063978 61.6957133,73.3838464 60.0890547,72.6676735 C58.4823961,71.9515005 57.6156461,70.3238348 58.1652925,69" id="Path" fill="#9B9A9A"></path>
            <path d="M63.3804258,72 C67.1390921,62.2147971 67.9785911,55.0151154 65.860764,50.6197295 C64.8113901,48.4518695 63.2087101,47.318218 62.0448591,47 L60.5375767,52.8273667 C60.327702,52.7677009 60.2513839,52.7279236 60.2513839,52.7279236 C61.1481215,53.2848051 62.6744834,57.6205251 58,69.7724741 L63.3804258,72 Z" id="Path" fill="#71706F"></path>
            <path d="M36,71.582563 C36.5496464,72.9063978 38.3042867,73.3838464 39.9109453,72.6676735 C41.5176039,71.9515005 42.3843539,70.3238348 41.8347075,69" id="Path" fill="#9B9A9A"></path>
            <path d="M36.6195742,72 C32.8609079,62.2147971 32.0214089,55.0151154 34.139236,50.6197295 C35.1886099,48.4518695 36.7912899,47.318218 37.9551409,47 L39.4624233,52.8273667 C39.672298,52.7677009 39.7486161,52.7279236 39.7486161,52.7279236 C38.8518785,53.2848051 37.3255166,57.6205251 42,69.7724741 L36.6195742,72 Z" id="Path" fill="#71706F"></path>
            <path d="M46.5102828,70 C44.5785887,70 43,71.3491124 43,73 L49.9997947,73 C50.0205656,71.3491124 48.4627478,70 46.5102828,70" id="Path" fill="#9B9A9A"></path>
            <path d="M53.5103858,70 C51.578635,70 50,71.3491124 50,73 L57,73 C57,71.3491124 55.4421365,70 53.5103858,70" id="Path" fill="#9B9A9A"></path>
        </g>
    </g>
</svg>