<?xml version="1.0" encoding="UTF-8"?>
<svg width="100px" height="100px" viewBox="0 0 100 100" version="1.1" xmlns="http://www.w3.org/2000/svg" xmlns:xlink="http://www.w3.org/1999/xlink">
    <!-- Generator: Sketch 54.1 (76490) - https://sketchapp.com -->
    <title>lion</title>
    <desc>Created with Sketch.</desc>
    <g id="lion" stroke="none" stroke-width="1" fill="none" fill-rule="evenodd">
        <rect id="Rectangle" fill="#3CB881" x="0" y="0" width="100" height="100"></rect>
        <g id="icons8-lion" fill-rule="nonzero">
            <path d="M100,50 C100,77.6098347 77.6098347,100 50,100 C22.3901653,100 0,77.6098347 0,50 C0,22.3901653 22.3901653,0 50,0 C77.6098347,0 100,22.3901653 100,50" id="Path" fill="#3CB881"></path>
            <path d="M27.5605428,73.539154 C27.5408713,73.2694116 27.5211998,73.0204186 27.5211998,72.7506762 C27.5211998,71.9621984 27.6392288,71.1944701 27.8949584,70.4682405 C28.229374,69.493018 27.7375864,68.4347978 26.8130255,68.1028071 C25.8884647,67.7708165 24.8852178,68.2688024 24.5704737,69.2232756 C24.1967151,70.3644934 24,71.5472101 24,72.7506762 C24,72.9789198 24.0196715,73.2279128 24.039343,73.4561564 C24.6491597,73.9126435 25.8097787,74.3691307 27.5605428,73.539154" id="Path" fill="#4A1C12"></path>
            <path d="M42.2595729,71 C41.2912622,71 40.481043,71.8053691 40.481043,72.8120805 C40.481043,76.4563758 37.576111,79.4161074 33.9992899,79.4161074 C30.6793676,79.4161074 27.9325271,76.8590604 27.5570597,73.5771812 C25.7982913,74.3825503 24.6323662,73.9395973 24,73.4765101 C24.3359445,78.7919463 28.6834619,83 33.9795285,83 C39.5127324,83 43.9985798,78.409396 43.9985798,72.7919463 C44.0381027,71.8053691 43.247645,71 42.2595729,71" id="Path" fill="#D09C75"></path>
            <path d="M44.7592847,67.0204082 C44.7592847,67.0204082 44.7592847,67.0204082 44.7592847,67.0204082 C45.7496561,67.5306122 46.8019257,68.0816327 47.8748281,68.7142857 C48.5763411,69.122449 49.2778542,69.5306122 50,70 L50,63.5306122 L50,48 C41.7056396,48 35,54.6530612 35,62.8367347 C35,63.1020408 35.0206327,63.3673469 35.0412655,63.6326531 C36.6299862,65.9183673 38.8376891,67.8163265 41.4786795,69.122449 C41.3136176,68.1428571 41.1691884,67.1020408 41.0041265,66.0204082 C42.1801926,66.3673469 43.4181568,66.6938776 44.7592847,67.0204082" id="Path" fill="#D09C75"></path>
            <path d="M50,48 L50,63.5306122 L50,70 C50.7211538,69.5306122 51.4217033,69.122449 52.1222527,68.7142857 C53.1936813,68.0816327 54.2445055,67.5306122 55.2541209,67.0408163 C56.614011,66.7346939 57.8914835,66.3877551 59.0865385,66.0204082 C58.9217033,67.0816327 58.7774725,68.0816327 58.6332418,69.0408163 C61.2293956,67.7142857 63.4134615,65.7959184 64.9587912,63.5102041 C64.9587912,63.2857143 65,63.0816327 65,62.8571429 C65,54.6326531 58.282967,48 50,48" id="Path" fill="#D09C75"></path>
            <path d="M50,71 L50,66.3767152 C49.2791762,65.9203395 48.5789474,65.523491 47.8787185,65.1266425 C46.8077803,64.5115274 44.7482838,66.3370304 44.7482838,66.3370304 C44.7482838,66.3370304 42.173913,66.4164001 41,66.0592364 C41.1647597,67.1108849 41.3089245,68.1228485 41.4736842,69.0752849 C43.98627,70.2856727 46.8695652,70.9801576 49.9382151,70.9801576 C49.979405,71 50,71 50,71" id="Path" fill="#D09C75"></path>
            <path d="M55.0612245,65.6415094 C54.0612245,66.0943396 53.1632653,63.8301887 52.1020408,64.4150943 C51.4081633,64.7924528 50.7142857,65.1698113 50,65.6037736 L50,63 L50,68.9811321 L50,70 C53.1020408,70 56.0204082,69.3018868 58.5510204,68.0943396 C58.7142857,67.2075472 58.8367347,66.2641509 59,65.3018868 C57.7959184,65.6415094 56.3877551,65.3584906 55.0612245,65.6415094" id="Path" fill="#D09C75"></path>
            <path d="M60.1969381,77.4131113 L60.1969381,72.8855359 C62.9819068,70.3943809 64.8183716,66.8949011 65,63 C63.4864301,65.21436 61.407794,67.0728408 58.8649965,68.3579605 C57.6137787,68.9906348 56.322199,69.4849116 54.8893528,69.8210198 C54.8691719,69.8210198 54.8691719,69.8210198 54.848991,69.8407908 C54.5059151,69.9198751 54.1830202,69.9989594 53.8399443,70.0582726 C53.7794015,70.0780437 53.7188587,70.0780437 53.6583159,70.0780437 C53.3556019,70.1373569 53.052888,70.1768991 52.750174,70.2164412 C52.6089074,70.2362123 52.4878219,70.2362123 52.3465553,70.2559834 C52.1043841,70.2757544 51.8622129,70.6711759 51.6402227,70.6909469 C51.256785,70.710718 50.8733473,71.0863684 50.4899095,71.0863684 L50.4495477,71.0863684 C50.06611,71.0863684 49.6826722,70.710718 49.3194154,70.6909469 C49.1176061,70.6711759 48.9359777,70.4734651 48.7341684,70.4536941 C48.55254,70.433923 48.3910926,70.3350676 48.2094642,70.3152966 C47.947112,70.2757544 47.6847599,70.1966701 47.4224078,70.157128 C47.3215031,70.1373569 47.2205985,70.1175858 47.1398747,70.0978148 C46.8371608,70.0385016 46.5344468,69.9791883 46.2317328,69.9001041 C46.1913709,69.880333 46.1308281,69.880333 46.0904662,69.8605619 C45.7473904,69.7814776 45.4244955,69.7023933 45.1016006,69.603538 C45.1016006,69.603538 45.0814196,69.603538 45.0814196,69.603538 C44.072373,69.3069719 43.1036882,68.9313215 42.1753653,68.4765869 C39.592206,67.2112383 37.5337509,65.3725286 36,63.1581686 C36.2018093,66.9937565 37.9777314,70.4536941 40.7627001,72.905307 L40.7627001,77.4328824 C39.3702157,78.5005203 38.2199026,80.635796 38.2199026,82 L50.2275574,82 C50.2275574,80.635796 49.1176061,78.5005203 47.7251218,77.4328824 L47.7251218,76.5234131 C47.7251218,76.5431842 48.0480167,76.5431842 48.1489214,76.5629553 C48.4314544,76.6222685 48.7745303,76.6618106 49.0772443,76.6815817 C49.1176061,76.6815817 49.157968,76.6815817 49.1983299,76.7013528 C49.6019485,76.7408949 50.045929,76.760666 50.5100905,76.760666 C51.4182324,76.760666 52.2860125,76.6815817 53.0125261,76.5431842 C53.0730689,76.5234131 53.2748782,76.5234131 53.2748782,76.5234131 L53.2748782,77.4328824 C51.8823939,78.5005203 50.8329854,80.635796 50.8329854,82 L62.8002784,82 C62.8002784,80.616025 61.5894224,78.5005203 60.1969381,77.4131113" id="Path" fill="#F6C899"></path>
            <path d="M78,47.5 C78,76 52.5205731,72.3951782 50.5,76 C46.0951506,71.7379455 23,76 23,47.5 C23,31.7662474 26.5562087,19 50.5,19 C76.2623071,19 78,31.7662474 78,47.5" id="Path" fill="#AF5C2B"></path>
            <path d="M45,32.0000443 C45,36.4237924 41.4237726,40 37,40 C32.5762274,40 29,36.4237924 29,32.0000443 C29,27.5762962 32.5762274,24.0000887 37,24.0000887 C41.4031008,23.9794169 45,27.5762962 45,32.0000443" id="Path" fill="#AF5C2B"></path>
            <path d="M41,32.500075 C41,34.9820964 38.9820628,37 36.5,37 C34.0179372,37 32,34.9820964 32,32.500075 C32,30.0180536 34.0179372,28.00015 36.5,28.00015 C38.9820628,27.979971 41,29.9978746 41,32.500075" id="Path" fill="#4A1C12"></path>
            <path d="M71,32.0000443 C71,36.4237924 67.4237726,40 63,40 C58.5762274,40 55,36.4237924 55,32.0000443 C55,27.5762962 58.5762274,24.0000887 63,24.0000887 C67.4031008,23.9794169 71,27.5762962 71,32.0000443" id="Path" fill="#F6C899"></path>
            <path d="M67,32.500075 C67,34.9820964 64.9820628,37 62.5,37 C60.0179372,37 58,34.9820964 58,32.500075 C58,30.0180536 60.0179372,28.00015 62.5,28.00015 C65.0022422,27.979971 67,29.9978746 67,32.500075" id="Path" fill="#4A1C12"></path>
            <path d="M45,32.0000443 C45,36.4237924 41.4237726,40 37,40 C32.5762274,40 29,36.4237924 29,32.0000443 C29,27.5762962 32.5762274,24.0000887 37,24.0000887 C41.4031008,23.9794169 45,27.5762962 45,32.0000443" id="Path" fill="#F6C899"></path>
            <path d="M41,32.500075 C41,34.9820964 38.9820628,37 36.5,37 C34.0179372,37 32,34.9820964 32,32.500075 C32,30.0180536 34.0179372,28.00015 36.5,28.00015 C38.9820628,27.979971 41,29.9978746 41,32.500075" id="Path" fill="#4A1C12"></path>
            <path d="M49.9955377,31 L49.9955377,31 C49.9955377,31 50.015618,31 49.9955377,31 C50.015618,31 49.9955377,31 49.9955377,31" id="Path" fill="#E96331"></path>
            <path d="M50.0075301,31 C49.9874498,31 49.9874498,31 50.0075301,31 C49.9874498,31 49.9874498,31 50.0075301,31 L50.0075301,31 Z" id="Path" fill="#A94825"></path>
            <path d="M50.0200803,46.9803198 L50.0200803,31 C50.0200803,31 50,31 50,31 C50,31 49.9799197,31 49.9799197,31 L49.9799197,47 C50,46.9803198 50,46.9803198 50.0200803,46.9803198" id="Path" fill="#A94825"></path>
            <path d="M49.9799197,63 C49.9799197,63 50,63 49.9799197,63 C50,63 50.0200803,63 50.0200803,63 L50.0200803,53.117061 L50.0200803,47 C50,47 50,47 49.9799197,47 L49.9799197,53.117061 L49.9799197,63 Z" id="Path" fill="#A94825"></path>
            <path d="M49.9955377,63 L49.9955377,63 C49.9955377,63 50.015618,63 49.9955377,63 C50.015618,63 49.9955377,63 49.9955377,63" id="Path" fill="#A94825"></path>
            <path d="M49.9889378,27 L49.9889378,27.6086492 L50.0287046,27.6086492 L49.9889378,27.6086492 L49.9889378,27 C34.9173247,27.0202883 30.9605291,36.5760812 31.0002959,47.0042712 C31.0201793,51.9951949 32.2529498,60.516284 32.2529498,60.516284 C32.2529498,60.516284 32.1734162,62.1596369 40.3852582,65 L40.3852582,61.2060865 C40.3852582,58.3657234 40.7829261,56.9861185 41.1010604,56.2963161 C44.2824036,57.5744794 46.7280611,59.1366791 47.3643297,60.4757074 C48.1397821,60.0293647 49.0544183,59.7656167 50.0088212,59.7656167 L52.514129,53.9022958 C54.0849171,53.5979712 55.0592035,54.0443139 56.2124404,54.4095035 C56.9878928,54.7341164 57.7832286,55.1398825 58.3996138,55.6673785 C58.3996138,55.6673785 59.5528507,56.0731447 59.5528507,61.2060865 L59.5528507,64.9797117 C67.7646927,62.1393486 67.7249259,60.4959957 67.7249259,60.4959957 C67.7249259,60.4959957 68.9576964,51.8126001 68.9974632,46.9839829 C69.1167635,36.5963695 65.060551,27.0202883 49.9889378,27" id="Path" fill="#F6C899"></path>
            <path d="M57.8580311,55.8607752 C57.2279793,55.3313056 56.4797927,54.9240213 55.7119171,54.5981939 C54.0777202,54.0687244 52.7585492,53.3967053 49.5492228,55.0258424 C46.3202073,53.3967053 45.0404145,54.0687244 43.3865285,54.5981939 C42.6186528,54.9240213 41.811399,55.3313056 41.1813472,55.8607752 C41.1813472,55.8607752 40,56.2680594 40,61.4202055 L40,65.2283134 C42.7170984,66.3076167 46.0445596,67 49.5098446,67 L49.5295337,67 L49.5295337,67 L49.5295337,67 C52.4829016,67 55.3968912,66.3687094 58.0746114,65.4523198 C58.3699482,65.3504987 59,65.3301345 59,65.2283134 L59,61.4405697 C59,56.2680594 57.8580311,55.8607752 57.8580311,55.8607752" id="Path" fill="#F7F3CE"></path>
            <path d="M60,65.8493976 L60,65.8493976 C59.6666667,65.9497992 59.3333333,66.0702811 59,66.1506024 C59.3333333,66.0502008 59.6666667,65.9497992 60,65.8493976" id="Path" fill="#F7F3CE"></path>
            <path d="M37,44.3283927 C37,44.3283927 45.1819272,41.8449231 44.9969088,50.5370666 C44.9969088,50.5156574 37,53.5557667 37,44.3283927" id="Path" fill="#4A1C12"></path>
            <path d="M44,47 C44,48.6621622 42.6621622,50 41,50 C39.3378378,50 38,48.6621622 38,47 C38,45.3378378 39.3378378,44 41,44 C42.6621622,44 44,45.3581081 44,47" id="Path" fill="#B66B28"></path>
            <path d="M43,46 C43,46.5490196 42.5490196,47 42,47 C41.4509804,47 41,46.5490196 41,46 C41,45.4509804 41.4509804,45 42,45 C42.5686275,45.0196078 43,45.4509804 43,46" id="Path" fill="#FFFFFF"></path>
            <path d="M63,44.3283927 C63,44.3283927 54.8180728,41.8449231 55.0030912,50.5370666 C55.0030912,50.5156574 63,53.5557667 63,44.3283927" id="Path" fill="#4A1C12"></path>
            <path d="M56,47 C56,48.6621622 57.3378378,50 59,50 C60.6418919,50 62,48.6621622 62,47 C62,45.3378378 60.6621622,44 59,44 C57.3378378,44.0202703 56,45.3581081 56,47" id="Path" fill="#B66B28"></path>
            <path d="M59,46 C59,46.5490196 59.4509804,47 60,47 C60.5490196,47 61,46.5490196 61,46 C61,45.4509804 60.5490196,45 60,45 C59.4509804,45.0196078 59,45.4509804 59,46" id="Path" fill="#FFFFFF"></path>
            <path d="M49.5759369,58 C49.1420118,57.919598 48.7672584,57.718593 48.5108481,57.4371859 C47.34714,56.0502513 45.8284024,55.0854271 45,54.6231156 C45.7889546,54.3819095 47.4457594,54 50.0098619,54 C52.5345168,54 54.2110454,54.3819095 55,54.6231156 C53.5207101,55.5276382 52.2978304,56.5125628 51.3905325,57.4773869 C51.1341223,57.7386935 50.7988166,57.919598 50.4043393,58 L49.5759369,58 Z" id="Path" fill="#D76D7A"></path>
            <path d="M50.0311958,54.6331878 C52.0901213,54.6331878 53.5875217,54.8951965 54.5441941,55.1135371 C53.2339688,56.0087336 52.1109185,56.9475983 51.2790295,57.8646288 C51.0710572,58.1048035 50.779896,58.2576419 50.4263432,58.3449782 L49.6152513,58.3449782 C49.1993068,58.2576419 48.8873484,58.0829694 48.6793761,57.8427948 C47.6811092,56.6200873 46.4540728,55.7030568 45.5389948,55.1135371 C46.47487,54.8733624 47.9722704,54.6331878 50.0311958,54.6331878 M50.0311958,54 C45.9549393,54 44,54.9388646 44,54.9388646 C44.0415945,55.0043668 46.5164645,56.2052402 48.2010399,58.2576419 C48.5545927,58.6943231 49.0537262,58.8908297 49.5528596,59 L50.4679376,59 C50.9254766,58.9126638 51.3622184,58.6943231 51.694974,58.3231441 C53.4419411,56.3799127 55.9792028,54.9388646 56,54.9170306 C56,54.9170306 54.0658579,54 50.0311958,54" id="Shape" fill="#4A1C12"></path>
            <path d="M49.6328612,61.033195 C48.8985836,62.340249 47.9399433,63.0871369 46.8385269,63.2323651 C44.329745,63.5850622 41.6577904,60.8879668 41.6169972,60.8672199 C41.474221,60.7219917 41.2498584,60.7219917 41.1070822,60.8672199 C40.9643059,61.0124481 40.9643059,61.2406639 41.1070822,61.3858921 C41.2294618,61.4896266 43.6974504,64 46.3694051,64 C46.5529745,64 46.7365439,63.9792531 46.9405099,63.9585062 C48.1439093,63.7925311 49.184136,63.06639 50,61.8215768 C50.815864,63.06639 51.8560907,63.7925311 53.0594901,63.9585062 C53.2430595,63.9792531 53.4266289,64 53.6305949,64 C56.3025496,64 58.7909348,61.5103734 58.8929178,61.3858921 C59.0356941,61.2406639 59.0356941,61.0124481 58.8929178,60.8672199 C58.7501416,60.7219917 58.5053824,60.7219917 58.3830028,60.8672199 C58.3626062,60.8879668 55.6906516,63.5643154 53.1818697,63.2323651 C52.0600567,63.06639 51.121813,62.340249 50.3875354,61.033195 L50.3875354,59.0207469 C50.407932,59.0207469 50.4487252,59 50.4691218,59 L49.5716714,59 C49.6124646,59 49.6328612,59.0207469 49.6736544,59.0207469 L49.6736544,61.033195 L49.6328612,61.033195 Z" id="Path" fill="#4A1C12"></path>
            <path d="M23.3654706,61 C23.2832347,61 23.1804398,60.9615436 23.1187629,60.903859 C22.9748501,60.7692615 22.9542911,60.5577512 23.0982039,60.4231538 C30.3760801,53.001066 41.6629558,57.1543587 41.7657507,57.1928151 C41.9507814,57.2697279 42.0535763,57.46201 41.9713404,57.6350638 C41.8891045,57.8081177 41.6835148,57.9042587 41.4984841,57.8273459 C41.3956892,57.7888895 30.5611108,53.8086507 23.6532962,60.8846308 C23.5505013,60.9615436 23.4477065,61 23.3654706,61" id="Path" fill="#8F6652"></path>
            <path d="M26.371178,63 C26.2694854,63 26.1881313,62.9563905 26.1067772,62.8909762 C25.9644076,62.7383429 25.9644076,62.4984906 26.1067772,62.3458573 C32.8388272,54.8886304 41.6250678,57.3961774 41.7267604,57.4397869 C41.9301456,57.5052012 42.0318382,57.7232488 41.9911611,57.9194916 C41.9301456,58.1375392 41.7470989,58.246563 41.5437137,58.1811487 C41.4623596,58.1593439 33.0828895,55.7826254 26.6559173,62.8909762 C26.5542247,62.9563905 26.4728706,63 26.371178,63" id="Path" fill="#8F6652"></path>
            <path d="M29.3565848,65 C29.2750269,65 29.2138585,64.9814162 29.15269,64.9442486 C28.9895742,64.8327457 28.9487952,64.6283239 29.0711321,64.4796534 C33.7403232,58.4213328 41.5902732,59.0160146 41.6718311,59.0160146 C41.875726,59.0345984 42.0184523,59.2018526 41.9980628,59.3691069 C41.9776734,59.5549449 41.8145575,59.6850316 41.6106627,59.6664478 C41.5291048,59.6664478 34.1073338,59.1089336 29.6828165,64.8513296 C29.5808691,64.9442486 29.4585322,65 29.3565848,65" id="Path" fill="#8F6652"></path>
            <path d="M75.6139704,61 C75.5111756,61 75.4083807,60.9615436 75.3467038,60.8846308 C68.4183302,53.8278789 57.6043108,57.7888895 57.5015159,57.8273459 C57.3164852,57.9042587 57.0903365,57.8081177 57.0286596,57.6350638 C56.9464237,57.46201 57.0492186,57.2504997 57.2342493,57.1928151 C57.3370442,57.1543587 68.6444789,53.001066 75.9017961,60.4231538 C76.0457089,60.5577512 76.0251499,60.7884897 75.8812371,60.903859 C75.7990012,60.9615436 75.6962063,61 75.6139704,61" id="Path" fill="#8F6652"></path>
            <path d="M73.6285131,63 C73.5267359,63 73.4453141,62.9562756 73.3638923,62.8906891 C66.9112155,55.7636178 58.5451268,58.1465956 58.463705,58.1684578 C58.2601505,58.2340443 58.0769515,58.1028713 58.0158852,57.9061116 C57.9548188,57.6874898 58.0769515,57.4907302 58.2601505,57.4251436 C58.3415723,57.4032814 67.1351255,54.8891305 73.8931339,62.3441345 C74.035622,62.4971698 74.035622,62.7376538 73.8931339,62.8906891 C73.8117121,62.9562756 73.7099349,63 73.6285131,63" id="Path" fill="#8F6652"></path>
            <path d="M70.6230257,65 C70.5006888,65 70.3987414,64.9442486 70.3171835,64.8513296 C65.8926662,59.1089336 58.4708952,59.6664478 58.3893373,59.6664478 C58.1854425,59.6850316 58.0019372,59.5549449 58.0019372,59.3691069 C57.9815477,59.1832688 58.124274,59.0160146 58.3281689,59.0160146 C58.4097268,59.0160146 66.2392874,58.4213328 70.9288679,64.4796534 C71.0512048,64.6283239 71.0104258,64.8327457 70.84731,64.9442486 C70.7657521,64.9814162 70.6841941,65 70.6230257,65" id="Path" fill="#8F6652"></path>
            <polygon id="Path" fill="#AF5C2B" points="49.6666667 36 43 28.5823009 49.6666667 25 56 28.5044248"></polygon>
        </g>
    </g>
</svg>