<?xml version="1.0" encoding="UTF-8"?>
<svg width="100px" height="100px" viewBox="0 0 100 100" version="1.1" xmlns="http://www.w3.org/2000/svg" xmlns:xlink="http://www.w3.org/1999/xlink">
    <!-- Generator: Sketch 54.1 (76490) - https://sketchapp.com -->
    <title>owl</title>
    <desc>Created with Sketch.</desc>
    <g id="owl" stroke="none" stroke-width="1" fill="none" fill-rule="evenodd">
        <rect id="Rectangle" fill="#D4D2B1" x="0" y="0" width="100" height="100"></rect>
        <g id="icons8-owl" fill-rule="nonzero">
            <path d="M100,50 C100,77.6098347 77.6098347,100 50,100 C22.3901653,100 0,77.6098347 0,50 C0,22.3901653 22.3901653,0 50,0 C77.6098347,0 100,22.3901653 100,50" id="Path" fill="#D4D2B1"></path>
            <path d="M70,55.5 C70,65.7124863 61.2710472,74 50.5,74 C39.7289528,74 31,65.7124863 31,55.5 C31,45.2875137 39.7289528,37 50.5,37 C61.2710472,37 70,45.2875137 70,55.5" id="Path" fill="#3B2314"></path>
            <path d="M63,56 C63,66.4994687 57.1820988,75 50,75 C42.8179012,75 37,66.4994687 37,56 C37,45.5005313 42.8179012,37 50,37 C57.1820988,37 63,45.5207226 63,56" id="Path" fill="#9D8775"></path>
            <path d="M59,56 C59,66.4994687 54.9683258,75 50,75 C45.0316742,75 41,66.4994687 41,56 C41,45.5005313 45.0316742,37 50,37 C54.9683258,37 59,45.5207226 59,56" id="Path" fill="#AC9A8A"></path>
            <path d="M69,38 C69,46.8394437 60.7103825,54 50.5,54 C40.2896175,54 32,46.8394437 32,38 C32,29.1605563 40.2693989,22 50.5,22 C60.7103825,22 69,29.1605563 69,38" id="Path" fill="#9D8775"></path>
            <path d="M50,37.5 C50,42.1973684 46.1973684,46 41.5,46 C36.8026316,46 33,42.1973684 33,37.5 C33,32.8026316 36.8026316,29 41.5,29 C46.1973684,29 50,32.8026316 50,37.5" id="Path" fill="#FFFFFF"></path>
            <path d="M49,37.5 C49,41.631016 45.6510695,45 41.5,45 C37.3489305,45 34,41.6510695 34,37.5 C34,33.368984 37.3489305,30 41.5,30 C45.6510695,30 49,33.368984 49,37.5" id="Path" fill="#3B2314"></path>
            <path d="M47,37.5 C47,40.5338078 44.5338078,43 41.5,43 C38.4661922,43 36,40.5338078 36,37.5 C36,34.4661922 38.4661922,32 41.5,32 C44.5338078,32 47,34.4661922 47,37.5" id="Path" fill="#603813"></path>
            <path d="M46,37.5 C46,39.9791667 43.9791667,42 41.5,42 C39.0208333,42 37,39.9791667 37,37.5 C37,35.0208333 39.0208333,33 41.5,33 C43.9791667,33 46,35.0208333 46,37.5" id="Path" fill="#3B2314"></path>
            <path d="M45,35.5002803 C45,36.3308943 44.3307692,37 43.5,37 C42.6692308,37 42,36.3308943 42,35.5002803 C42,34.6696664 42.6692308,34.0005607 43.5,34.0005607 C44.3307692,33.977488 45,34.6696664 45,35.5002803" id="Path" fill="#FFFFFF"></path>
            <path d="M41,40 C41,41.1086957 40.1086957,42 39,42 C37.8913043,42 37,41.1086957 37,40 C37,38.8913043 37.8913043,38 39,38 C40.1086957,38 41,38.8913043 41,40" id="Path" fill="#FFFFFF"></path>
            <path d="M67,37.5 C67,42.1973684 63.1973684,46 58.5,46 C53.8026316,46 50,42.1973684 50,37.5 C50,32.8026316 53.8026316,29 58.5,29 C63.1973684,29 67,32.8026316 67,37.5" id="Path" fill="#FFFFFF"></path>
            <path d="M66,37.5 C66,41.631016 62.6510695,45 58.5,45 C54.3489305,45 51,41.6510695 51,37.5 C51,33.368984 54.3489305,30 58.5,30 C62.6510695,30 66,33.368984 66,37.5" id="Path" fill="#3B2314"></path>
            <path d="M64,37.5 C64,40.5338078 61.5338078,43 58.5,43 C55.4661922,43 53,40.5338078 53,37.5 C53,34.4661922 55.4661922,32 58.5,32 C61.5533808,32 64,34.4661922 64,37.5" id="Path" fill="#603813"></path>
            <path d="M63,37.5 C63,39.9791667 60.9791667,42 58.5,42 C56.0208333,42 54,39.9791667 54,37.5 C54,35.0208333 56.0208333,33 58.5,33 C60.9791667,33 63,35.0208333 63,37.5" id="Path" fill="#3B2314"></path>
            <path d="M63,35.5002803 C63,36.3308943 62.3307692,37 61.5,37 C60.6692308,37 60,36.3308943 60,35.5002803 C60,34.6696664 60.6692308,34.0005607 61.5,34.0005607 C62.3076923,33.977488 63,34.6696664 63,35.5002803" id="Path" fill="#FFFFFF"></path>
            <path d="M58,40 C58,41.1086957 57.1086957,42 56,42 C54.8913043,42 54,41.1086957 54,40 C54,38.8913043 54.8913043,38 56,38 C57.1086957,38 58,38.8913043 58,40" id="Path" fill="#FFFFFF"></path>
            <path d="M63,27.876429 C63,27.876429 65.8837783,27.110623 67.5205173,25.2648341 C69.1572563,23.3994092 66.0786282,32 66.0786282,32 L63,27.876429 Z" id="Path" fill="#9D8775"></path>
            <path d="M37,27.876429 C37,27.876429 34.1162217,27.110623 32.4794827,25.2648341 C30.8427437,23.3994092 33.9213718,32 33.9213718,32 L37,27.876429 Z" id="Path" fill="#9D8775"></path>
            <path d="M51.2559391,48.6338983 C50.9628867,48.959322 50.4186464,48.979661 50,49 C49.5813536,48.979661 49.0371133,48.9389831 48.7440609,48.6338983 C47.8439711,47.4338983 46.9438814,46.2338983 46.0437917,45.0338983 C45.7088746,44.7491525 47.3206632,43 50,43 C52.6793368,43 54.2911254,44.7288136 53.9562083,45.0338983 C53.0561186,46.2338983 52.1560289,47.4338983 51.2559391,48.6338983" id="Path" fill="#F37920"></path>
            <path d="M46,76.278481 C46,77.2303797 45.3294118,78 44.5,78 C43.6705882,78 43,77.2303797 43,76.278481 L43,71.721519 C43,70.7696203 43.6705882,70 44.5,70 C45.3294118,70 46,70.7696203 46,71.721519 L46,76.278481 Z" id="Path" fill="#F37920"></path>
            <path d="M43,75.4901961 C43,76.3333333 42.3376623,77 41.5,77 C40.6623377,77 40,76.3137255 40,75.4901961 L40,71.5098039 C40,70.6666667 40.6818182,70 41.5,70 C42.3181818,70 43,70.6862745 43,71.5098039 L43,75.4901961 Z" id="Path" fill="#F37920"></path>
            <path d="M40,74.70625 C40,75.41875 39.326087,76 38.5,76 C37.673913,76 37,75.41875 37,74.70625 L37,71.29375 C37,70.58125 37.673913,70 38.5,70 C39.326087,70 40,70.58125 40,71.29375 L40,74.70625 Z" id="Path" fill="#F37920"></path>
            <path d="M54,76.278481 C54,77.2303797 54.6705882,78 55.5,78 C56.3294118,78 57,77.2303797 57,76.278481 L57,71.721519 C57,70.7696203 56.3294118,70 55.5,70 C54.6705882,70 54,70.7696203 54,71.721519 L54,76.278481 Z" id="Path" fill="#F37920"></path>
            <path d="M57,75.4901961 C57,76.3333333 57.6818182,77 58.5,77 C59.3376623,77 60,76.3137255 60,75.4901961 L60,71.5098039 C60,70.6666667 59.3376623,70 58.5,70 C57.6623377,70 57,70.6862745 57,71.5098039 L57,75.4901961 Z" id="Path" fill="#F37920"></path>
            <path d="M60,74.70625 C60,75.41875 60.673913,76 61.5,76 C62.326087,76 63,75.41875 63,74.70625 L63,71.29375 C63,70.58125 62.326087,70 61.5,70 C60.673913,70 60,70.58125 60,71.29375 L60,74.70625 Z" id="Path" fill="#F37920"></path>
        </g>
    </g>
</svg>