<?xml version="1.0" encoding="UTF-8"?>
<svg width="100px" height="100px" viewBox="0 0 100 100" version="1.1" xmlns="http://www.w3.org/2000/svg" xmlns:xlink="http://www.w3.org/1999/xlink">
    <!-- Generator: Sketch 54.1 (76490) - https://sketchapp.com -->
    <title>panther</title>
    <desc>Created with Sketch.</desc>
    <g id="panther" stroke="none" stroke-width="1" fill="none" fill-rule="evenodd">
        <rect id="Rectangle" fill="#D7DABA" x="0" y="0" width="100" height="100"></rect>
        <g id="icons8-black_jaguar" fill-rule="nonzero">
            <path d="M26.5814644,70.5270749 C26.5439622,70.2711162 26.525211,70.0151575 26.525211,69.7395096 C26.525211,68.9519444 26.6564689,68.2037574 26.9002335,67.4752596 C27.2190026,66.5104921 26.7502245,65.4472791 25.8314195,65.1125638 C24.9126145,64.7581595 23.9000539,65.2700769 23.5812848,66.2348443 C23.2062623,67.3571248 23,68.5384726 23,69.7395096 C23,69.9757792 23.0187511,70.2120488 23.0375022,70.4286292 C23.6750404,70.9208575 24.83761,71.3737075 26.5814644,70.5270749" id="Path" fill="#333333"></path>
            <path d="M100,50 C100,77.6098347 77.6098347,100 50,100 C22.3901653,100 0,77.6098347 0,50 C0,22.3901653 22.3901653,0 50,0 C77.6098347,0 100,22.3901653 100,50" id="Path" fill="#D7DABA"></path>
            <path d="M42.1447368,68 C41.1184211,68 40.2894737,68.8722045 40.2894737,69.9520767 C40.2894737,73.8977636 37.2302632,77.1166134 33.4802632,77.1166134 C30.0065789,77.1166134 27.125,74.3546326 26.7302632,70.7827476 C24.8947368,71.6549521 23.6710526,71.1773163 23,70.6789137 C23.3552632,76.4313099 27.9144737,81 33.4802632,81 C39.2828947,81 44,76.0367412 44,69.9313099 C44,68.8722045 43.1710526,68 42.1447368,68" id="Path" fill="#424243"></path>
            <path d="M66,60.0941176 C66,60.0941176 65.9191129,60.0739496 65.9191129,60.0739496 C65.9393346,59.8521008 65.9191129,59.6302521 65.9191129,59.4084034 C65.9191129,50.897479 58.9830398,44 50.4494455,44 C41.9158513,44 35,50.897479 35,59.4084034 C35,59.6907563 35.2426614,59.9529412 35.2628832,60.2352941 C35.4853229,64.3495798 37.5883888,68.0403361 40.3789954,70.6823529 L40.3789954,75.5428571 C38.9836921,76.692437 37.4872798,78.6084034 37.4872798,80 L50.1258969,80 C50.1258969,78.6084034 48.7508154,76.692437 47.3555121,75.5428571 L47.3555121,74.5747899 C47.3555121,74.6151261 48.0834964,74.6756303 48.3666014,74.6957983 C48.7508154,74.7563025 49.1956947,74.7764706 49.6203523,74.8168067 C49.640574,74.8168067 49.7214612,74.8168067 49.741683,74.8168067 C49.8630137,74.8168067 50.0045662,74.8168067 50.1258969,74.8369748 C50.2270059,74.8369748 50.3281148,74.8369748 50.4292237,74.8369748 C50.5303327,74.8369748 50.6314416,74.8369748 50.7325506,74.8369748 C50.8538813,74.8369748 50.9954338,74.8369748 51.1167645,74.8168067 C51.1369863,74.8168067 51.1572081,74.8168067 51.1774299,74.8168067 C51.7436399,74.7966387 52.0874103,74.7361345 52.5727332,74.6554622 C52.7547293,74.6352941 52.9165036,74.6151261 52.9165036,74.5747899 L52.9165036,75.5428571 C51.5212003,76.692437 50.7527723,78.6084034 50.7527723,80 L63.3913894,80 C63.3913894,78.6084034 62.6634051,76.692437 61.2681018,75.5428571 L61.2681018,70.6823529 C64.0587084,68 65.8180039,64.2689076 66,60.0941176" id="Path" fill="#494848"></path>
            <path d="M48,60.9955377 L48,60.9955377 C48,60.9955377 48,61.015618 48,60.9955377 C48,61.015618 48,60.9955377 48,60.9955377" id="Path" fill="#0B191C"></path>
            <path d="M49.9799197,60 C49.9799197,60 49.9799197,60 49.9799197,60 C50,60 50.0200803,60 50.0200803,60 L50.0200803,49.4934757 L50.0200803,43 C50,43 50,43 49.9799197,43 L49.9799197,49.4934757 L49.9799197,60 Z" id="Path" fill="#A94825"></path>
            <path d="M44,27 C44,31.4226044 40.4226044,35 36,35 C31.5773956,35 28,31.4226044 28,27 C28,22.5773956 31.5773956,19 36,19 C40.4226044,19 44,22.5773956 44,27" id="Path" fill="#AF5C2B"></path>
            <path d="M41,27.5 C41,29.9702128 38.9893617,32 36.5,32 C34.0106383,32 32,29.9893617 32,27.5 C32,25.0106383 34.0106383,23 36.5,23 C38.9893617,23 41,25.0106383 41,27.5" id="Path" fill="#4A1C12"></path>
            <path d="M72,27 C72,31.4226044 68.4226044,35 64,35 C59.5773956,35 56,31.4226044 56,27 C56,22.5773956 59.5773956,19 64,19 C68.4226044,19 72,22.5773956 72,27" id="Path" fill="#494848"></path>
            <path d="M68,27.5 C68,29.9702128 65.9893617,32 63.5,32 C61.0106383,32 59,29.9893617 59,27.5 C59,25.0106383 61.0106383,23 63.5,23 C65.9893617,23 68,25.0106383 68,27.5" id="Path" fill="#333333"></path>
            <path d="M44,27 C44,31.4226044 40.4226044,35 36,35 C31.5773956,35 28,31.4226044 28,27 C28,22.5773956 31.5773956,19 36,19 C40.4226044,19 44,22.5773956 44,27" id="Path" fill="#494848"></path>
            <path d="M41,27.5 C41,29.9702128 38.9893617,32 36.5,32 C34.0106383,32 32,29.9893617 32,27.5 C32,25.0106383 34.0106383,23 36.5,23 C38.9893617,23 41,25.0106383 41,27.5" id="Path" fill="#333333"></path>
            <path d="M50.0100402,26 C50.0100402,26 49.9899598,26 49.9899598,26 C49.9899598,26 49.9899598,26 50.0100402,26 L50.0100402,26 Z" id="Path" fill="#A94825"></path>
            <path d="M50.0200803,43 L50.0200803,26 C50.0200803,26 50,26 50,26 C50,26 49.9799197,26 49.9799197,26 L49.9799197,43 C49.9799197,43 50,43 50.0200803,43" id="Path" fill="#A94825"></path>
            <path d="M49.9799197,60 C49.9799197,60 49.9799197,60 49.9799197,60 C50,60 50.0200803,60 50.0200803,60 L50.0200803,49.4934757 L50.0200803,43 C50,43 50,43 49.9799197,43 L49.9799197,49.4934757 L49.9799197,60 Z" id="Path" fill="#A94825"></path>
            <path d="M49.9298414,22 L49.9298414,22.1015887 L50.1897018,22.1015887 L49.9298414,22.1015887 L49.9298414,22 C34.7779825,22.0203177 29.9405817,32.0776017 30.0005495,43.0288665 C30.0205387,48.2708448 31.4597654,57.2309705 31.4597654,57.2309705 C31.4597654,57.2309705 31.9195184,58.9782966 40.1750827,61.9446875 C40.1750827,61.9446875 47.6510658,63.9358265 50.1897018,63.9967797 C52.8482733,64.057733 56.1065226,63.2450232 58.9449975,62.2697714 C59.2648256,62.1681827 59.5846538,62.0462762 59.5846538,61.9446875 L59.5846538,61.9446875 C67.840218,58.9579789 68.5798207,57.2309705 68.5798207,57.2309705 C68.5798207,57.2309705 69.9590796,48.1083028 69.9990581,43.0288665 C70.0790151,32.0776017 65.0817002,22 49.9298414,22" id="Path" fill="#494848"></path>
            <path d="M37,40.3246956 C37,40.3246956 45.173176,37.8581032 44.9971985,46.5217544 C44.9971985,46.5217544 37,49.5591286 37,40.3246956" id="Path" fill="#333333"></path>
            <path d="M44,43 C44,44.6645161 42.6645161,46 41,46 C39.3354839,46 38,44.6645161 38,43 C38,41.3354839 39.3354839,40 41,40 C42.6451613,40 44,41.3548387 44,43" id="Path" fill="#5C5C5C"></path>
            <path d="M43,42 C43,42.5660377 42.5514019,43 42.0093458,43 C41.4485981,43 41,42.5471698 41,42 C41,41.4528302 41.4485981,41 42.0093458,41 C42.5514019,41 43,41.4528302 43,42" id="Path" fill="#FFFFFF"></path>
            <path d="M64,40.3246956 C64,40.3246956 55.826824,37.8581032 56.0028015,46.5217544 C56.0028015,46.5217544 64,49.5591286 64,40.3246956" id="Path" fill="#333333"></path>
            <path d="M57,43 C57,44.6645161 58.3354839,46 60,46 C61.6645161,46 63,44.6645161 63,43 C63,41.3354839 61.6645161,40 60,40 C58.3548387,40 57,41.3548387 57,43" id="Path" fill="#5C5C5C"></path>
            <path d="M60,42 C60,42.5660377 60.4485981,43 61.0093458,43 C61.5514019,43 62,42.5471698 62,42 C62,41.4528302 61.5514019,41 61.0093458,41 C60.4485981,41 60,41.4528302 60,42" id="Path" fill="#FFFFFF"></path>
            <path d="M50.0150094,55 C49.5403377,54.9238095 49.1275797,54.7333333 48.8592871,54.4285714 C47.5797373,53.0571429 45.9080675,52.0857143 45,51.6285714 C45.8667917,51.3809524 47.6829268,51 50.5103189,51 C53.2964353,51 55.1125704,51.3809524 56,51.6285714 C54.4108818,52.5238095 53.0075047,53.5333333 52.0375235,54.4666667 C51.7692308,54.7333333 51.3977486,54.9047619 50.9437148,54.9809524 L50.0150094,54.9809524 L50.0150094,55 Z" id="Path" fill="#333333"></path>
            <path d="M50.0198015,50.6458333 C52.0791565,50.6458333 53.5840697,50.8958333 54.5345412,51.125 C53.2276429,52.0208333 52.1187594,52.9583333 51.2672954,53.8958333 C51.049479,54.125 50.7722581,54.2916667 50.4158313,54.375 L49.6039702,54.375 C49.1881389,54.2916667 48.8713151,54.125 48.6733002,53.875 C47.6832257,52.6458333 46.4357318,51.7291667 45.5248632,51.1458333 C46.4951362,50.875 47.980248,50.6458333 50.0198015,50.6458333 M50.0198015,50 C45.9406945,50 43.980347,50.9375 44.0001485,50.9375 L44.0001485,50.9375 C44.0397515,51 46.5149377,52.2083333 48.1980644,54.2708333 C48.5544912,54.7083333 49.0495285,54.9166667 49.5445657,55 L50.4752358,55 C50.93067,54.9166667 51.3663028,54.7083333 51.7029281,54.3333333 C53.4652608,52.3958333 55.98005,50.9583333 55.9998515,50.9166667 C56.019653,50.9166667 54.0593055,50 50.0198015,50" id="Shape" fill="#333333"></path>
            <path d="M50.1103616,57.0355731 C49.3310847,58.3399209 48.3262277,59.0711462 47.1573125,59.229249 C44.4913654,59.5652174 41.6818672,56.8972332 41.66136,56.8577075 C41.517809,56.7193676 41.2717215,56.7193676 41.1076632,56.8577075 C40.9641123,56.9960474 40.9641123,57.2332016 41.1076632,57.3913043 C41.230707,57.5098814 43.8351322,60 46.6651376,60 C46.8702105,60 47.054776,59.9802372 47.2598489,59.9604743 C48.5313006,59.7826087 49.6181867,59.0711462 50.5,57.826087 C51.361306,59.0711462 52.4481921,59.7826087 53.7401511,59.9604743 C53.945224,59.9802372 54.1297895,60 54.3348624,60 C57.1648678,60 59.769293,57.4901186 59.8923368,57.3913043 C60.0358877,57.2529644 60.0358877,57.0158103 59.8923368,56.8577075 C59.7487858,56.6996047 59.5026983,56.7193676 59.33864,56.8577075 C59.3181328,56.8774704 56.4881274,59.5652174 53.8426875,59.229249 C52.6737723,59.0711462 51.6689153,58.3399209 50.8896384,57.0355731 L50.8896384,55.0197628 C50.9101457,55.0197628 50.9511603,55 50.9716676,55 L50.0078251,55 C50.0488397,55 50.069347,55.0197628 50.1103616,55.0197628 L50.1103616,57.0355731 Z" id="Path" fill="#333333"></path>
            <path d="M23.3744795,57 C23.2961826,57 23.1983115,56.9633968 23.1200146,56.908492 C22.9634208,56.7803807 22.9634208,56.5607615 23.1004403,56.4143486 C30.362479,49.0021987 41.6568087,53.156663 41.7742541,53.1932662 C41.9699964,53.2664726 42.0482933,53.4677903 41.9699964,53.6325047 C41.8916994,53.8155208 41.6763829,53.8887272 41.4806407,53.8155208 C41.3631953,53.7789176 30.5582213,49.8074693 23.6289445,56.8718888 C23.5702218,56.9633968 23.4723507,57 23.3744795,57" id="Path" fill="#333333"></path>
            <path d="M25.3837275,60 C25.2807479,60 25.1983642,59.9585358 25.1159805,59.8963395 C24.971809,59.7512147 24.9512131,59.5024295 25.1159805,59.3365726 C32.283361,51.8937468 41.6339091,54.4023315 41.7162928,54.4230636 C41.922252,54.48526 42.0458275,54.692581 41.9840398,54.8999021 C41.922252,55.1072231 41.7162928,55.2316158 41.5103336,55.1694194 C41.4279499,55.1486873 32.5099161,52.7644952 25.6720704,59.8756074 C25.5896867,59.9585358 25.4867071,60 25.3837275,60" id="Path" fill="#333333"></path>
            <path d="M28.3639858,63 C28.2862358,63 28.2279233,62.9793468 28.1501734,62.9380404 C27.9946734,62.8141213 27.9557984,62.566283 28.0529859,62.4010575 C32.7374217,55.3170136 40.5901687,56.0192221 40.6679187,56.0192221 C40.8622936,56.0398753 41.0177936,56.225754 40.9983561,56.452939 C40.9789186,56.6594709 40.8039812,56.8246964 40.6096062,56.8040433 C40.5318563,56.8040433 33.106734,56.1637944 28.6749857,62.8554277 C28.5972357,62.9380404 28.4806107,63 28.3639858,63" id="Path" fill="#333333"></path>
            <path d="M76.6254669,57 C76.5275818,57 76.4296966,56.9632623 76.3513885,56.889787 C69.4211208,49.7994145 58.6146016,53.7854529 58.4971394,53.8221906 C58.3013691,53.8956659 58.0860218,53.8038217 58.0272907,53.6385022 C57.9489826,53.4548138 58.0468678,53.2527565 58.223061,53.19765 C58.3405232,53.1609123 69.6364681,48.9911855 76.8995453,56.4305659 C77.0365845,56.5775167 77.0365845,56.7979428 76.8799683,56.9265246 C76.8016601,56.9632623 76.723352,57 76.6254669,57" id="Path" fill="#333333"></path>
            <path d="M74.6239508,60 C74.5209236,60 74.4178964,59.9585358 74.3354746,59.8756074 C67.4738637,52.7644952 58.5723145,55.1486873 58.4898927,55.1694194 C58.2838383,55.2316158 58.0777839,55.1072231 58.0159676,54.8999021 C57.9541513,54.692581 58.0777839,54.48526 58.2838383,54.4230636 C58.3868655,54.4023315 67.721129,51.8937468 74.8918214,59.3365726 C75.0360595,59.5024295 75.0360595,59.7304826 74.8918214,59.8963395 C74.8093997,59.9585358 74.7269779,60 74.6239508,60" id="Path" fill="#333333"></path>
            <path d="M71.6022053,63 C71.4857132,63 71.3692211,62.9382227 71.3109751,62.8352605 C66.8842749,56.1633126 59.4481951,56.8016779 59.3899491,56.8016779 C59.1763802,56.8222704 59.001642,56.6575309 59.001642,56.4516066 C58.9822267,56.2456823 59.1375495,56.039758 59.331703,56.0191655 C59.4093644,56.0191655 67.2531665,55.3190228 71.9322663,62.382227 C72.0487584,62.5469665 72.0099277,62.7940757 71.8546049,62.9176303 C71.7575282,62.9794076 71.6798667,63 71.6022053,63" id="Path" fill="#333333"></path>
        </g>
    </g>
</svg>