<?xml version="1.0" encoding="UTF-8"?>
<svg width="100px" height="100px" viewBox="0 0 100 100" version="1.1" xmlns="http://www.w3.org/2000/svg" xmlns:xlink="http://www.w3.org/1999/xlink">
    <!-- Generator: Sketch 54.1 (76490) - https://sketchapp.com -->
    <title>rhyno</title>
    <desc>Created with Sketch.</desc>
    <defs>
        <rect id="path-1" x="0.1" y="0.06" width="23.86" height="14.9"></rect>
    </defs>
    <g id="rhyno" stroke="none" stroke-width="1" fill="none" fill-rule="evenodd">
        <rect id="Rectangle" fill="#E79E2D" x="0" y="0" width="100" height="100"></rect>
        <g id="icons8-rhinoceros">
            <path d="M100,50 C100,77.6098347 77.6098347,100 50,100 C22.3901653,100 0,77.6098347 0,50 C0,22.3901653 22.3901653,0 50,0 C77.6098347,0 100,22.3901653 100,50" id="Path" fill="#E79E2D" fill-rule="nonzero"></path>
            <path d="M62.4314167,18.5660729 C63.703304,19.839745 62.7746244,22.8722974 60.3116046,25.3185564 C57.8687735,27.7648154 54.8404705,28.7150152 53.5685833,27.4211261 C52.296696,26.1474541 53.2253756,23.1149016 55.6883954,20.6686426 C58.1312265,18.2426007 61.1595295,17.2924009 62.4314167,18.5660729" id="Path" fill="#6B6A6D" fill-rule="nonzero"></path>
            <path d="M61.5426751,19.4573249 C62.5668112,20.4814611 61.8143846,22.9059467 59.8497153,24.8497153 C57.8850459,26.8143846 55.4814611,27.5668112 54.4573249,26.5426751 C53.4331888,25.5185389 54.1856154,23.1149541 56.1502847,21.1502847 C58.1149541,19.1856154 60.5185389,18.4331888 61.5426751,19.4573249" id="Path" fill="#B3B2B9" fill-rule="nonzero"></path>
            <path d="M36.5685833,18.5660729 C35.296696,19.839745 36.2253756,22.8722974 38.6883954,25.3185564 C41.1312265,27.7648154 44.1595295,28.7150152 45.4314167,27.4211261 C46.703304,26.1474541 45.7746244,23.1149016 43.3116046,20.6686426 C40.8687735,18.2426007 37.8404705,17.2924009 36.5685833,18.5660729" id="Path" fill="#6B6A6D" fill-rule="nonzero"></path>
            <path d="M37.4573249,19.4573249 C36.4331888,20.4814611 37.1856154,22.9059467 39.1502847,24.8497153 C41.1149541,26.8143846 43.5185389,27.5668112 44.5426751,26.5426751 C45.5668112,25.5185389 44.8143846,23.1149541 42.8497153,21.1502847 C40.8850459,19.1856154 38.4814611,18.4331888 37.4573249,19.4573249" id="Path" fill="#B3B2B9" fill-rule="nonzero"></path>
            <g id="Clipped" transform="translate(39.000000, 50.000000)">
                <mask id="mask-2" fill="white">
                    <use xlink:href="#path-1"></use>
                </mask>
                <g id="SVGID_5_"></g>
                <path d="M12.02,14.96 C17.66,14.96 22.44,12.1 23.96,8.18 C22.44,2.94 17.68,0.06 12.02,0.06 C6.38,0.06 1.6,2.92 0.08,8.18 C1.62,12.08 6.38,14.96 12.02,14.96" id="Path" fill="#5A575B" fill-rule="nonzero" mask="url(#mask-2)"></path>
            </g>
            <path d="M51,65 C56.6683417,65 61.4723618,62.1208054 63,58.1744966 C61.4723618,52.8993289 56.6884422,50 51,50 C45.3316583,50 40.5276382,52.8791946 39,58.1744966 C40.5477387,62.1006711 45.3316583,65 51,65" id="Path" fill="#5A575B" fill-rule="nonzero"></path>
            <path d="M38.5016077,59 C38.1736334,60.1227273 38,61.3439394 38,62.6833333 C38,67.8242424 41.1254019,72 50,72 L50,65.6772727 C44.5594855,65.6969697 39.9678457,62.8606061 38.5016077,59" id="Path" fill="#5A575B" fill-rule="nonzero"></path>
            <path d="M61.4983923,59 C61.8263666,60.1216775 62,61.3417478 62,62.6798894 C62,67.8159917 58.9517685,72.2633446 50,71.9878449 L50,65.6710294 C55.4212219,65.690708 60.0321543,62.8569964 61.4983923,59" id="Path" fill="#5A575B" fill-rule="nonzero"></path>
            <rect id="Rectangle" fill="#5A575B" fill-rule="nonzero" x="43" y="68" width="5" height="7"></rect>
            <rect id="Rectangle" fill="#5A575B" fill-rule="nonzero" x="53" y="68" width="5" height="7"></rect>
            <path d="M45.4402655,76.4513274 C45.659292,76.4513274 45.8384956,76.6504425 45.8384956,76.8938053 L45.8384956,78 L50,78 C50,75.2345133 47.9889381,73 45.5,73 C43.0110619,73 41,75.2345133 41,78 L45.0420354,78 L45.0420354,76.8938053 C45.0420354,76.6504425 45.2212389,76.4513274 45.4402655,76.4513274" id="Path" fill="#3C3D3C" fill-rule="nonzero"></path>
            <path d="M55.4402655,76.4513274 C55.659292,76.4513274 55.8384956,76.6504425 55.8384956,76.8938053 L55.8384956,78 L60,78 C60,75.2345133 57.9889381,73 55.5,73 C53.0110619,73 51,75.2345133 51,78 L55.0420354,78 L55.0420354,76.8938053 C55.0420354,76.6504425 55.2212389,76.4513274 55.4402655,76.4513274" id="Path" fill="#3C3D3C" fill-rule="nonzero"></path>
            <path d="M26,67.6215336 C26.7676349,67.2972141 29.0290456,66.3814886 31.7676349,67.6596888 C32.9709544,68.2129396 33.6556017,68.7089576 34.1742739,69.0714323 C34.6721992,69.4529846 35.626556,70.3687102 36,71.0745819 C35.2323651,71.3989014 35.0871369,71.5324447 34.1120332,71.8186089 C33.4896266,71.9903074 32.5767635,72.0856955 31.9958506,71.8949194 C31.4149378,71.7041432 30.7925311,71.4942894 30.0456432,70.8838058 C29.5062241,70.5022535 27.5560166,67.9649307 26,67.6215336" id="Path" fill="#3C3D3C" fill-rule="nonzero"></path>
            <path d="M35.1539766,71 C34.8176959,71 34.461634,70.9807559 34.1055721,70.9230236 C33.3934484,70.8075591 32.898918,70.1532601 33.0176053,69.4604729 C33.1362926,68.7676858 33.8088539,68.2865836 34.5209777,68.4020481 C38.7541578,69.0563471 40.3959987,62.0707431 40.4157799,61.9937667 C40.5740296,61.3009796 41.2663722,60.8776096 41.9784959,61.0315623 C42.6906197,61.185515 43.1258064,61.8590581 42.9675567,62.5518453 C42.8884319,62.917483 40.9696539,71 35.1539766,71" id="Path" fill="#5A575B" fill-rule="nonzero"></path>
            <path d="M69,44.1640798 C69,32.4501109 60.9436302,19 51,19 C41.0563698,19 33,32.4501109 33,44.1640798 C33,52.8447894 37.4239008,58.113082 43.7553551,60.2682927 C43.8162345,62.3436807 47.042841,64 51,64 C54.957159,64 58.1634724,62.3237251 58.2446449,60.2682927 C64.5760992,58.113082 69,52.8447894 69,44.1640798" id="Path" fill="#6B6A6D" fill-rule="nonzero"></path>
            <path d="M55.2420839,41.4987787 C53.2837882,39.395701 50.5111516,15 50.5111516,15 C50.5111516,15 47.7191259,39.395701 45.7608301,41.4987787 C45.7608301,41.4987787 39.5369396,52.5549585 50.4917625,56 C61.4659745,52.5549585 55.2420839,41.4987787 55.2420839,41.4987787" id="Path" fill="#B3B2B9" fill-rule="nonzero"></path>
            <path d="M45,38.5 C45,39.3283582 44.3283582,40 43.5,40 C42.6716418,40 42,39.3283582 42,38.5 C42,37.6716418 42.6716418,37 43.5,37 C44.3283582,37 45,37.6716418 45,38.5" id="Path" fill="#060808" fill-rule="nonzero"></path>
            <path d="M58,38.5 C58,39.3283582 57.3283582,40 56.5,40 C55.6716418,40 55,39.3283582 55,38.5 C55,37.6716418 55.6716418,37 56.5,37 C57.3283582,37 58,37.6716418 58,38.5" id="Path" fill="#060808" fill-rule="nonzero"></path>
            <path d="M43.8989487,60.7816512 C44.0687141,61.3332692 44.0177845,61.8619032 43.7970895,61.9768236 C43.5763944,62.091744 43.2538402,61.7699668 43.1010513,61.2183488 C42.9312859,60.6667308 42.9822155,60.1380968 43.2029105,60.0231764 C43.4236056,59.908256 43.7291833,60.2300332 43.8989487,60.7816512" id="Path" fill="#060808" fill-rule="nonzero"></path>
            <path d="M55.1010513,60.7816512 C54.9312859,61.3332692 54.9822155,61.8619032 55.2029105,61.9768236 C55.4236056,62.091744 55.7461598,61.7699668 55.8989487,61.2183488 C56.0687141,60.6667308 56.0177845,60.1380968 55.7970895,60.0231764 C55.5763944,59.908256 55.2538402,60.2300332 55.1010513,60.7816512" id="Path" fill="#060808" fill-rule="nonzero"></path>
        </g>
    </g>
</svg>