<?xml version="1.0" encoding="UTF-8"?>
<svg width="100px" height="100px" viewBox="0 0 100 100" version="1.1" xmlns="http://www.w3.org/2000/svg" xmlns:xlink="http://www.w3.org/1999/xlink">
    <!-- Generator: Sketch 54.1 (76490) - https://sketchapp.com -->
    <title>white-panther</title>
    <desc>Created with Sketch.</desc>
    <g id="white-panther" stroke="none" stroke-width="1" fill="none" fill-rule="evenodd">
        <rect id="Rectangle" fill="#49A0AE" x="0" y="0" width="100" height="100"></rect>
        <g id="icons8-white_jaguar" fill-rule="nonzero">
            <path d="M100,50 C100,77.6098347 77.6098347,100 50,100 C22.3901653,100 0,77.6098347 0,50 C0,22.3901653 22.3901653,0 50,0 C77.6098347,0 100,22.3901653 100,50" id="Path" fill="#49A0AE"></path>
            <path d="M42.1447368,68 C41.1184211,68 40.2894737,68.8722045 40.2894737,69.9520767 C40.2894737,73.8977636 37.2302632,77.1166134 33.4802632,77.1166134 C30.0065789,77.1166134 27.125,74.3546326 26.7302632,70.7827476 C24.8947368,71.6549521 23.6710526,71.1773163 23,70.6789137 C23.3552632,76.4313099 27.9144737,81 33.4802632,81 C39.2828947,81 44,76.0367412 44,69.9313099 C44,68.8722045 43.1710526,68 42.1447368,68" id="Path" fill="#F7F3CE"></path>
            <path d="M26.5814644,70.5305679 C26.5439622,70.2740852 26.525211,70.0176025 26.525211,69.7413903 C26.525211,68.9522127 26.6564689,68.2024939 26.9002335,67.4725046 C27.2190026,66.505762 26.7502245,65.4403722 25.8314195,65.1049717 C24.9126145,64.7695712 23.9000539,65.2628072 23.5812848,66.2295498 C23.2062623,67.354128 23,68.5378944 23,69.7413903 C23,69.9781436 23.0187511,70.2148969 23.0375022,70.4516502 C23.6562893,70.9054273 24.8188589,71.3789339 26.5814644,70.5305679" id="Path" fill="#F7F3CE"></path>
            <path d="M66,59.869469 C65.898957,60.0088496 65.7170795,60.1681416 65.6160365,60.3075221 C65.7170795,60.1681416 65.7777053,60.0287611 65.8787484,59.869469 C65.898957,59.6504425 65.898957,59.4314159 65.898957,59.2123894 C65.898957,50.8097345 58.9674055,44 50.4393742,44 C41.9113429,44 35,50.8097345 35,59.2123894 C35,59.4911504 35.2425033,59.75 35.2627119,60.0287611 C35.4850065,64.090708 37.5867014,67.7345133 40.3754889,70.3429204 L40.3754889,75.1415929 C38.9810952,76.2765487 37.4856584,78.6261062 37.4856584,80 L50.1160365,80 C50.1160365,78.6261062 48.7418514,76.2765487 47.3474576,75.1415929 L47.3474576,74.1858407 C48.7418514,74.3451327 49.1864407,74.4446903 50.1362451,74.4446903 C51.0860495,74.4446903 52.9250326,74.3451327 52.9250326,74.1858407 L52.9250326,75.1415929 C51.5306389,76.2765487 50.7627119,78.6261062 50.7627119,80 L63.39309,80 C63.39309,78.6261062 62.6655802,76.2765487 61.2711864,75.1415929 L61.2711864,70.3429204 C64.0397653,67.6946903 65.8181226,64.0110619 66,59.869469 M50.4191656,67.6548673 C50.398957,67.6548673 50.3787484,67.6548673 50.3787484,67.6548673 C45.4074316,67.6548673 40.9211213,65.8628319 37.6675359,62.9756637 C38.8396349,64.0110619 40.1936115,64.9269912 41.648631,65.6438053 C41.4667536,64.6283186 41.3252934,63.5730088 41.1434159,62.4579646 C42.3559322,62.8163717 43.6492829,63.1747788 45.0234681,63.4933628 C45.0234681,63.4933628 45.0234681,63.4933628 45.0234681,63.5132743 C46.0541069,64.0110619 46.9837027,64.5884956 48.095176,65.2455752 C48.8024772,65.6637168 50.1160365,66.0818584 50.1160365,66.5597345 L50.1160365,59.949115 L50.1160365,66.5597345 C51.5104302,66.0818584 51.7327249,65.6438053 52.4602347,65.2455752 C53.571708,64.6084071 54.7235984,64.0309735 55.7542373,63.5132743 C57.148631,63.1946903 58.5026076,62.8362832 59.7353325,62.4579646 C59.5736636,63.5331858 59.452412,64.5685841 59.2907432,65.5641593 C61.4530639,64.4690265 63.3526728,62.9756637 64.8279009,61.2035398 C61.5541069,65.1061947 56.3402868,67.6548673 50.4191656,67.6548673 M37.1421121,62.4977876 C37.303781,62.6371681 37.4452412,62.7964602 37.60691,62.9358407 C37.4654498,62.7964602 37.303781,62.6570796 37.1421121,62.4977876 M65.4543677,60.4070796 C65.3735332,60.5265487 65.2926988,60.6261062 65.2118644,60.7455752 C65.2926988,60.6261062 65.3735332,60.5066372 65.4543677,60.4070796 M65.1512386,60.8053097 C65.0501956,60.9247788 64.9693611,61.0442478 64.8683181,61.1637168 C64.9693611,61.0442478 65.0501956,60.9247788 65.1512386,60.8053097" id="Shape" fill="#F7F3CE"></path>
            <path d="M50.4587852,63.7174761 L50.4587852,63.7174761 C49.6963124,62.324821 42.2364425,63.4550918 41,63.0917905 C41.164859,64.2220612 41.329718,65.1504979 41.5151844,66.1798516 C42.4219089,71.4275371 43.8438178,75 50.4587852,75 C57.2798265,75 58.6399132,71.2660699 59.5260304,65.9780175 C59.6908894,64.9890306 59.835141,64.2018778 60,63.1119739 C58.7429501,63.4752752 51.2212581,62.324821 50.4587852,63.7174761" id="Path" fill="#F7F3CE"></path>
            <path d="M48,60.9955377 L48,60.9955377 C48,60.9955377 48,61.015618 48,60.9955377 C48,61.015618 48,60.9955377 48,60.9955377" id="Path" fill="#0B191C"></path>
            <path d="M49.9799197,60 C49.9799197,60 49.9799197,60 49.9799197,60 C50,60 50,60 50.0200803,60 L50.0200803,49.4934757 L50.0200803,43 C50,43 50,43 49.9799197,43 L49.9799197,49.4934757 L49.9799197,60 Z" id="Path" fill="#A94825"></path>
            <path d="M44,27 C44,31.4226044 40.4226044,35 36,35 C31.5773956,35 28,31.4226044 28,27 C28,22.5773956 31.5773956,19 36,19 C40.4029484,19 44,22.5773956 44,27" id="Path" fill="#AF5C2B"></path>
            <path d="M41,27.5 C41,29.9893617 38.9893617,32 36.5,32 C34.0106383,32 32,29.9893617 32,27.5 C32,25.0106383 34.0106383,23 36.5,23 C38.9893617,23 41,25.0106383 41,27.5" id="Path" fill="#4A1C12"></path>
            <path d="M72,27 C72,31.4226044 68.4226044,35 64,35 C59.5773956,35 56,31.4226044 56,27 C56,22.5773956 59.5773956,19 64,19 C68.4226044,19 72,22.5773956 72,27" id="Path" fill="#F7F3CE"></path>
            <path d="M68,27.5 C68,29.9893617 65.9893617,32 63.5,32 C61.0106383,32 59,29.9893617 59,27.5 C59,25.0106383 61.0106383,23 63.5,23 C65.9893617,23 68,25.0106383 68,27.5" id="Path" fill="#D76D7A"></path>
            <path d="M44,27 C44,31.4226044 40.4226044,35 36,35 C31.5773956,35 28,31.4226044 28,27 C28,22.5773956 31.5773956,19 36,19 C40.4029484,19 44,22.5773956 44,27" id="Path" fill="#F7F3CE"></path>
            <path d="M41,27.5 C41,29.9893617 38.9893617,32 36.5,32 C34.0106383,32 32,29.9893617 32,27.5 C32,25.0106383 34.0106383,23 36.5,23 C38.9893617,23 41,25.0106383 41,27.5" id="Path" fill="#D76D7A"></path>
            <path d="M50.0100402,26 C50.0100402,26 49.9899598,26 49.9899598,26 C49.9899598,26 49.9899598,26 50.0100402,26 L50.0100402,26 Z" id="Path" fill="#A94825"></path>
            <path d="M50.0200803,43 L50.0200803,26 C50.0200803,26 50,26 50,26 C50,26 49.9799197,26 49.9799197,26 L49.9799197,43 C49.9799197,43 50,43 50.0200803,43" id="Path" fill="#A94825"></path>
            <path d="M49.9799197,60 C49.9799197,60 49.9799197,60 49.9799197,60 C50,60 50,60 50.0200803,60 L50.0200803,49.4934757 L50.0200803,43 C50,43 50,43 49.9799197,43 L49.9799197,49.4934757 L49.9799197,60 Z" id="Path" fill="#A94825"></path>
            <path d="M49.9298414,22 L49.9298414,22.5689405 L50.1897018,22.5689405 L49.9298414,22.5689405 L49.9298414,22 C34.7779825,22.0203193 29.9405817,32.0783745 30.0005495,43.030479 C30.0205387,48.2728592 31.4597654,57.233672 31.4597654,57.233672 C31.4597654,57.233672 31.9195184,58.9811321 40.1750827,61.9477504 C40.1750827,61.6023222 50.1897018,64 50.1897018,64 C53.3280155,64 56.1065226,63.2481858 58.9449975,62.2931785 C59.2648256,62.191582 59.5846538,62.0696662 59.5846538,61.9680697 L59.5846538,61.9680697 C67.840218,58.9811321 68.5798207,57.2539913 68.5798207,57.2539913 C68.5798207,57.2539913 69.9590796,48.1306241 69.9990581,43.0507983 C70.0790151,32.0783745 65.0817002,22 49.9298414,22" id="Path" fill="#F7F3CE"></path>
            <path d="M59,58.4212514 C59,53.2686572 58.1721992,52.8618735 58.1721992,52.8618735 C57.5217842,52.3388658 56.9107884,51.9320821 56.1026971,51.6027809 C54.3682573,51.0604026 53.1068465,50.4018003 49.716805,52.0289353 C46.3267635,50.4018003 45.0062241,51.0797733 43.2914938,51.6027809 C42.4834025,51.9320821 41.7541494,52.3388658 41.1037344,52.8618735 C41.1037344,52.8618735 40,53.2686572 40,58.4212514 L40,62.2178998 C42.719917,63.2832858 46.1690871,63.9225174 49.8153527,63.9225174 L49.7956432,63.7288108 L49.5,63.7288108 L49.5,63.8644054 L49.3226141,64 C52.7717842,64 56.280083,63.3026564 59,62.2372704 L59,58.4212514 Z" id="Path" fill="#F7F3CE"></path>
            <path d="M37,40.3246956 C37,40.3246956 45.173176,37.8581032 44.9971985,46.5217544 C44.9971985,46.5217544 37,49.5591286 37,40.3246956" id="Path" fill="#4A1C12"></path>
            <path d="M44,43.0001024 C44,44.6645617 42.6645161,46 41,46 C39.3354839,46 38,44.6645617 38,43.0001024 C38,41.3356431 39.3354839,40.0002048 41,40.0002048 C42.6451613,39.9808506 44,41.3356431 44,43.0001024" id="Path" fill="#F6C899"></path>
            <path d="M43,41.9906542 C43,42.5514019 42.5471698,43 42,43 C41.4339623,43 41,42.5514019 41,41.9906542 C41,41.4485981 41.4528302,41 42,41 C42.5471698,41 43,41.4485981 43,41.9906542" id="Path" fill="#FFFFFF"></path>
            <path d="M64,40.3246956 C64,40.3246956 55.826824,37.8581032 56.0028015,46.5217544 C56.0028015,46.5217544 64,49.5591286 64,40.3246956" id="Path" fill="#4A1C12"></path>
            <path d="M57,43.0001024 C57,44.6645617 58.3354839,46 60,46 C61.6645161,46 63,44.6645617 63,43.0001024 C63,41.3356431 61.6451613,40.0002048 60,40.0002048 C58.3548387,39.9808506 57,41.3356431 57,43.0001024" id="Path" fill="#F6C899"></path>
            <path d="M60,41.9906542 C60,42.5514019 60.4485981,43 61.0093458,43 C61.5514019,43 62,42.5514019 62,41.9906542 C62,41.4485981 61.5514019,41 61.0093458,41 C60.4485981,41 60,41.4485981 60,41.9906542" id="Path" fill="#FFFFFF"></path>
            <path d="M50.0150094,55 C49.5403377,54.9238095 49.1275797,54.7333333 48.8592871,54.4285714 C47.5797373,53.0571429 45.9080675,52.0857143 45,51.6285714 C45.8667917,51.3809524 47.6829268,51 50.5103189,51 C53.2964353,51 55.1125704,51.3809524 56,51.6285714 C54.4108818,52.5238095 53.0075047,53.5333333 52.0375235,54.4666667 C51.7692308,54.7333333 51.3977486,54.9047619 50.9643527,54.9809524 L50.0150094,54.9809524 L50.0150094,55 Z" id="Path" fill="#D76D7A"></path>
            <path d="M50.0198015,50.6458333 C52.0791565,50.6458333 53.5840697,50.8958333 54.5345412,51.125 C53.2276429,52.0208333 52.1187594,52.9583333 51.2672954,53.8958333 C51.049479,54.125 50.7722581,54.2916667 50.4158313,54.375 L49.6039702,54.375 C49.1881389,54.2916667 48.8713151,54.125 48.6733002,53.875 C47.6832257,52.6458333 46.4357318,51.7291667 45.5446647,51.1458333 C46.4951362,50.875 47.980248,50.6458333 50.0198015,50.6458333 M50.0198015,50 C45.9406945,50 43.980347,50.9375 44.0001485,50.9375 L44.0001485,50.9375 C44.0397515,51 46.5149377,52.2083333 48.1980644,54.2708333 C48.5544912,54.7083333 49.0495285,54.9166667 49.5445657,55 L50.4752358,55 C50.93067,54.9166667 51.3663028,54.7083333 51.7029281,54.3333333 C53.4652608,52.3958333 55.98005,50.9583333 55.9998515,50.9166667 C56.019653,50.9166667 54.0593055,50 50.0198015,50" id="Shape" fill="#4A1C12"></path>
            <path d="M50.1103616,57.0355731 C49.3310847,58.3399209 48.3262277,59.0711462 47.1573125,59.229249 C44.4913654,59.5652174 41.6818672,56.8972332 41.66136,56.8577075 C41.517809,56.7193676 41.2717215,56.7193676 41.1076632,56.8577075 C40.9641123,56.9960474 40.9641123,57.2332016 41.1076632,57.3913043 C41.230707,57.5098814 43.8351322,60 46.6651376,60 C46.8702105,60 47.054776,59.9802372 47.2598489,59.9604743 C48.5518079,59.7826087 49.6181867,59.0711462 50.5,57.826087 C51.361306,59.0711462 52.4481921,59.7826087 53.7401511,59.9604743 C53.945224,59.9802372 54.1297895,60 54.3348624,60 C57.1648678,60 59.769293,57.4901186 59.8923368,57.3913043 C60.0358877,57.2529644 60.0358877,57.0158103 59.8923368,56.8577075 C59.7487858,56.7193676 59.5026983,56.7193676 59.33864,56.8577075 C59.3181328,56.8774704 56.4881274,59.5652174 53.8426875,59.229249 C52.6737723,59.0711462 51.6689153,58.3399209 50.8896384,57.0355731 L50.8896384,55.0197628 C50.9101457,55.0197628 50.9511603,55 50.9716676,55 L50.0078251,55 C50.0488397,55 50.069347,55.0197628 50.1103616,55.0197628 L50.1103616,57.0355731 Z" id="Path" fill="#4A1C12"></path>
            <path d="M23.3744795,57 C23.2961826,57 23.1983115,56.9633968 23.1200146,56.908492 C22.9634208,56.7803807 22.9634208,56.5607615 23.1004403,56.4143486 C30.3820532,49.0021987 41.6568087,53.156663 41.7742541,53.1932662 C41.9699964,53.2664726 42.0482933,53.4677903 41.9699964,53.6325047 C41.8916994,53.8155208 41.6763829,53.8887272 41.4806407,53.8155208 C41.3631953,53.7789176 30.5582213,49.8074693 23.6289445,56.8718888 C23.5702218,56.9633968 23.4723507,57 23.3744795,57" id="Path" fill="#F6C899"></path>
            <path d="M25.3837275,60 C25.2807479,60 25.1983642,59.9585358 25.1159805,59.8963395 C24.971809,59.7512147 24.9512131,59.5024295 25.1159805,59.3365726 C32.283361,51.8937468 41.6339091,54.4023315 41.7162928,54.4230636 C41.922252,54.48526 42.0458275,54.692581 41.9840398,54.8999021 C41.922252,55.1072231 41.7162928,55.2316158 41.5103336,55.1694194 C41.4279499,55.1486873 32.5099161,52.7644952 25.6720704,59.8756074 C25.5896867,59.9585358 25.4867071,60 25.3837275,60" id="Path" fill="#F6C899"></path>
            <path d="M28.3639858,63 C28.2862358,63 28.2084858,62.9793468 28.1501734,62.9380404 C27.9946734,62.8141213 27.9557984,62.566283 28.0529859,62.4010575 C32.7374217,55.3170136 40.5901687,56.0192221 40.6679187,56.0192221 C40.8622936,56.0398753 41.0177936,56.225754 40.9983561,56.4322859 C40.9789186,56.6388177 40.8234187,56.8040433 40.6096062,56.7833901 C40.5318563,56.7833901 33.106734,56.1431412 28.6749857,62.8347745 C28.5777982,62.9380404 28.4611732,63 28.3639858,63" id="Path" fill="#F6C899"></path>
            <path d="M76.6450439,57 C76.5471588,57 76.4492737,56.9632623 76.3709655,56.889787 C69.4406978,49.7994145 58.6146016,53.7854529 58.5167164,53.8221906 C58.3209462,53.8956659 58.1055988,53.8038217 58.0272907,53.6385022 C57.9489826,53.4548138 58.0468678,53.2527565 58.223061,53.19765 C58.3405232,53.1609123 69.616891,48.9911855 76.8995453,56.4305659 C77.0365845,56.5775167 77.0365845,56.7979428 76.8799683,56.9265246 C76.8212372,56.9632623 76.7429291,57 76.6450439,57" id="Path" fill="#F6C899"></path>
            <path d="M74.6239508,60 C74.5209236,60 74.4178964,59.9585358 74.3354746,59.8756074 C67.4738637,52.7644952 58.5723145,55.1486873 58.4898927,55.1694194 C58.2838383,55.2316158 58.0777839,55.1072231 58.0159676,54.8999021 C57.9541513,54.692581 58.0777839,54.48526 58.2838383,54.4230636 C58.3868655,54.4023315 67.721129,51.8937468 74.8918214,59.3365726 C75.0360595,59.5024295 75.0360595,59.7304826 74.8918214,59.8963395 C74.8093997,59.9585358 74.7269779,60 74.6239508,60" id="Path" fill="#F6C899"></path>
            <path d="M71.6033156,63 C71.4868133,63 71.3703109,62.9380404 71.3120597,62.8347745 C66.8849695,56.1431412 59.4482346,56.7833901 59.3899834,56.7833901 C59.1763957,56.8040433 59.0016422,56.6388177 59.0016422,56.4322859 C58.9822251,56.225754 59.1375616,56.0192221 59.3317322,56.0192221 C59.4094005,56.0192221 67.2538937,55.3170136 71.9334057,62.4010575 C72.0499081,62.566283 72.0110739,62.8141213 71.8363204,62.9380404 C71.7586521,62.9793468 71.6809839,63 71.6033156,63" id="Path" fill="#F6C899"></path>
        </g>
    </g>
</svg>