<?xml version="1.0" encoding="UTF-8"?>
<svg width="100px" height="100px" viewBox="0 0 100 100" version="1.1" xmlns="http://www.w3.org/2000/svg" xmlns:xlink="http://www.w3.org/1999/xlink">
    <!-- Generator: Sketch 54.1 (76490) - https://sketchapp.com -->
    <title>wolf</title>
    <desc>Created with Sketch.</desc>
    <g id="wolf" stroke="none" stroke-width="1" fill="none" fill-rule="evenodd">
        <rect id="Rectangle" fill="#E79E2D" x="0" y="0" width="100" height="100"></rect>
        <g id="icons8-wolf" fill-rule="nonzero">
            <path d="M100,50 C100,77.6098347 77.6098347,100 50,100 C22.3901653,100 0,77.6098347 0,50 C0,22.3901653 22.3901653,0 50,0 C77.6098347,0 100,22.3901653 100,50" id="Path" fill="#E79E2D"></path>
            <path d="M50.9797508,44 C43.8115265,44 38,49.8571429 38,57.0816327 C38,57.3265306 38.0202492,57.5510204 38.0404984,57.7755102 C38.2227414,61.2653061 39.7616822,64.4081633 42.1510903,66.6530612 L42.1510903,70.7755102 C40.8956386,71.755102 40.105919,73.2857143 40.105919,75 L50.7367601,75 C50.7367601,73.2857143 49.9267913,71.755102 48.6915888,70.7755102 L48.6915888,69.9387755 C49.44081,70.0816327 50.2102804,70.1632653 51.0202492,70.1632653 L51.0202492,64.3469388 C53.7336449,64.3469388 56.2850467,63.6734694 58.4922118,62.5306122 C60.7398754,61.3469388 62.6433022,59.6734694 63.9797508,57.6530612 C63.9797508,57.4693878 64,57.2653061 64,57.0816327 C63.9595016,49.8571429 58.1479751,44 50.9797508,44" id="Path" fill="#685750"></path>
            <path d="M59.8701095,70.8448884 L59.8701095,66.8096357 C62.2910798,64.5922444 63.85759,61.4759107 64,58 C62.657277,59.9776733 60.7449139,61.6357227 58.486698,62.7743831 C57.6525822,63.1938895 56.7777778,63.5534665 55.8622848,63.8331375 C55.8622848,63.8331375 55.8419405,63.8331375 55.8419405,63.8331375 C55.5367762,63.93302 55.2519562,64.012926 54.9467919,64.0728555 C54.9061033,64.092832 54.8654147,64.092832 54.8247261,64.092832 C54.5399061,64.1527615 54.2754304,64.212691 53.9906103,64.2726204 C53.9092332,64.2925969 53.827856,64.2925969 53.7464789,64.3125734 C53.5023474,64.3525264 53.258216,64.3924794 53.0140845,64.4124559 C52.8513302,64.4324324 52.6885759,64.4324324 52.5461659,64.4524089 C52.3630673,64.4723854 52.200313,64.4923619 52.0172144,64.4923619 C51.6713615,64.5123384 51.3458529,64.5323149 51,64.5323149 L51,70.2655699 C51.8544601,70.2655699 52.5868545,70.2056404 53.258216,70.0658049 C53.2785603,70.0658049 53.3192488,70.0658049 53.3395931,70.0458284 L53.3395931,70.8648649 C52.0782473,71.8237368 51.28482,73.3219741 51.28482,75 L61.9655712,75 C61.9248826,73.3019976 61.1314554,71.8037603 59.8701095,70.8448884" id="Path" fill="#685750"></path>
            <path d="M51,75 C51,72.243346 48.5323194,70 45.5,70 C42.4676806,70 40,72.243346 40,75 L51,75 Z" id="Path" fill="#D4D2B1"></path>
            <path d="M62,75 C62,72.243346 59.5323194,70 56.5,70 C53.4676806,70 51,72.243346 51,75 L62,75 Z" id="Path" fill="#F7F3CE"></path>
            <path d="M51,70 C51,70 49.3867236,67.9459124 46.903127,66.5142756 C44.4195305,65.0618904 41.2778869,62.385352 42.1482071,58.6506473 C43.0185273,54.9366909 51,58.6506473 51,58.6506473 L51,70 Z" id="Path" fill="#D4D2B1"></path>
            <path d="M51,70 C51,70 52.6132764,67.9459124 55.096873,66.5142756 C57.5804695,65.0618904 60.7221131,62.385352 59.8517929,58.6506473 C58.9814727,54.9366909 51.0212273,58.6506473 51.0212273,58.6506473 L51,70 Z" id="Path" fill="#F7F3CE"></path>
            <path d="M59.6107507,65.2358731 C64.0352178,68.6717951 69.8665431,66.3683837 73.3123262,62.778901 C73.5773865,62.5101696 73.8832252,62.2414383 74.2094532,62.0110972 C75.6774791,61.9535119 77.2474513,62.1070726 78.5523633,62.778901 C78.5523633,62.778901 76.2279889,64.4296791 75.3308619,66.2532131 C75.3308619,66.2532131 77.9406858,66.7522856 80,65.5429946 C80,65.5429946 79.7349398,68.441454 77.5532901,70.9560114 C76.8600556,71.1479624 76.1260426,71.3207182 75.3308619,71.474279 C61.8739574,73.9696413 58,66.7714807 58,66.7714807 L59.6107507,65.2358731 Z" id="Path" fill="#685750"></path>
            <path d="M75.0894661,66.2504039 C75.9412304,64.4087237 78.2192049,62.7415186 78.2192049,62.7415186 C76.9514626,62.0436187 75.4262101,61.8885299 74,61.9660743 C77.6843762,59.1163166 84.5381081,59 84.5381081,59 C84.5381081,59 87.7470809,67.8400646 77.2485897,71 C79.3680964,68.46042 79.6256066,65.5331179 79.6256066,65.5331179 C77.6249507,66.7544426 75.0894661,66.2504039 75.0894661,66.2504039" id="Path" fill="#F7F3CE"></path>
            <path d="M51,50.0410298 L51,49.6387772 L51,32 C42.7337662,32 36.0097403,38.5567176 36.0097403,46.6621078 C36.0097403,46.8431215 36.030303,47.0442478 36.030303,47.2252615 C36.030303,47.2252615 32.8636364,51.0667739 32,57 C35.2900433,52.8970233 42.5487013,50.0410298 51,50.0410298" id="Path" fill="#685750"></path>
            <path d="M70,57 C69.135428,51.0715434 65.9653304,47.2130225 65.9653304,47.2130225 C65.9653304,47.0321543 66.0065005,46.8311897 66.0065005,46.6503215 C66.0065005,38.5715434 59.2957746,32 51,32 L51,49.6446945 L51,50.0466238 C59.460455,50.0466238 66.7475623,52.9003215 70,57" id="Path" fill="#685750"></path>
            <path d="M35.8863636,55.7870528 C38.8679654,56.9318569 44.9751082,61 51,61 L51,56.5434412 L51,49 C42.5487013,49 35.2694805,51.9028961 32.0205628,56.0732538 C32.0205628,56.0936968 32.0205628,56.1141397 32,56.1345826 C32.0205628,56.1345826 33.3777056,54.8262351 35.8863636,55.7870528" id="Path" fill="#D4D2B1"></path>
            <path d="M51,61 C57.0454545,61 63.1320346,56.9387755 66.1136364,55.7959184 C68.6222944,54.8367347 70,56.1428571 70,56.1428571 C70,56.122449 70,56.1020408 70,56.0816327 C66.7510823,51.9183673 59.4718615,49 51.0205628,49 L51.0205628,56.5306122 L51.0205628,61 L51,61 Z" id="Path" fill="#F7F3CE"></path>
            <path d="M47,33.6404834 L37.926091,25 C37.926091,25 33.2382401,33.2084592 38.4894379,38 L44.6258952,34.858006 L47,33.6404834 Z" id="Path" fill="#685750"></path>
            <path d="M39.4698574,30 C39.4698574,30 37.6199858,33.7884615 41.2613121,37 L45,35.0576923 L39.4698574,30 Z" id="Path" fill="#D4D2B1"></path>
            <path d="M54,33.6404834 L63.073909,25 C63.073909,25 67.7617599,33.2084592 62.5105621,38 L56.3741048,34.858006 L54,33.6404834 Z" id="Path" fill="#685750"></path>
            <path d="M62.5301426,30 C62.5301426,30 64.3800142,33.7884615 60.7386879,37 L57,35.0576923 L62.5301426,30 Z" id="Path" fill="#F7F3CE"></path>
            <path d="M41.8769018,43 C40.7644998,43 39.9014292,43.2466125 39.8055325,43.2655827 L39,43.4932249 L39,44.3279133 C39,49.4498645 42.4139235,50 43.8907331,50 C45.1373905,50 46.1538958,49.6395664 46.2689719,49.601626 L46.9786077,49.3360434 L46.997787,48.5772358 C47.0361457,46.7560976 46.5758414,45.3333333 45.6168741,44.3658537 C44.7154449,43.4742547 43.4304288,43 41.8769018,43" id="Path" fill="#D4D2B1"></path>
            <path d="M44.1458583,49 C42.9738719,49 41,48.5450237 41,45.5308057 L41,45.2464455 L41.2878563,45.1706161 C41.3084175,45.1706161 41.9252524,45 42.6860155,45 C43.6935126,45 44.5365204,45.2843602 45.112233,45.8151659 C45.729068,46.4028436 46.0374855,47.2748815 45.9963631,48.4123223 L45.9963631,48.6587678 L45.729068,48.7535545 C45.7085068,48.7725118 44.9888661,49 44.1458583,49" id="Path" fill="#B68473"></path>
            <path d="M45,46 C45,46.5526316 44.5526316,47 44,47 C43.4473684,47 43,46.5526316 43,46 C43,45.4473684 43.4473684,45 44,45 C44.5526316,45 45,45.4473684 45,46" id="Path" fill="#FFFFFF"></path>
            <path d="M59.1047945,43 C57.5517372,43 56.2671096,43.472973 55.3851264,44.3810811 C54.4264491,45.3459459 53.9471104,46.7648649 54.0046311,48.5810811 L54.0238046,49.3378378 L54.7332258,49.6027027 C54.8482671,49.6405405 55.8644651,50 57.1107456,50 C58.5871087,50 62,49.4513514 62,44.3432432 L62,43.5108108 L61.194711,43.2837838 C61.0988433,43.2459459 60.2168602,43 59.1047945,43" id="Path" fill="#F7F3CE"></path>
            <path d="M57.8541417,49 C59.0261281,49 61,48.5450237 61,45.5308057 L61,45.2464455 L60.7121437,45.1706161 C60.6915825,45.1706161 60.0747476,45 59.3139845,45 C58.3064874,45 57.4634796,45.2843602 56.887767,45.8151659 C56.270932,46.4028436 55.9625145,47.2748815 56.0036369,48.4123223 L56.0036369,48.6587678 L56.270932,48.7535545 C56.3120543,48.7725118 57.0111339,49 57.8541417,49" id="Path" fill="#B68473"></path>
            <path d="M58,46 C58,46.5526316 58.4473684,47 59,47 C59.5526316,47 60,46.5526316 60,46 C60,45.4473684 59.5526316,45 59,45 C58.4473684,45 58,45.4473684 58,46" id="Path" fill="#FFFFFF"></path>
            <path d="M48,57.5 C48,58.3214286 49.1172161,59 50.4908425,59 C51.8644689,59 53,58.3214286 53,57.5 C53,56.6785714 51.8827839,56 50.4908425,56 C49.0989011,56 48,56.6785714 48,57.5" id="Path" fill="#3C3D3C"></path>
        </g>
    </g>
</svg>